<svg width="50" height="50" viewBox="0 0 50 50" fill="none" xmlns="http://www.w3.org/2000/svg">
<path d="M17.4675 5.16501C18.5615 4.83517 19.7354 4.88997 20.7939 5.32027C21.8523 5.75058 22.7315 6.53043 23.285 7.53001L23.47 7.90251L25.125 11.58C25.6273 12.6962 25.7903 13.9355 25.5938 15.1436C25.3974 16.3517 24.8501 17.4755 24.02 18.375L23.6875 18.705L21.08 21.1375C20.61 21.5825 20.9625 23.305 22.6625 26.25C24.1925 28.9 25.4375 30.1375 26.05 30.205H26.1575L26.29 30.18L31.415 28.6125C32.1038 28.4013 32.8388 28.3929 33.5322 28.5884C34.2256 28.7839 34.848 29.1751 35.325 29.715L35.5525 30.0025L38.945 34.7025C39.6099 35.6237 39.9412 36.7439 39.8844 37.8786C39.8276 39.0133 39.3861 40.0948 38.6325 40.945L38.3275 41.26L36.9725 42.545C35.7557 43.6973 34.2337 44.476 32.5873 44.7884C30.9408 45.1009 29.2393 44.9339 27.685 44.3075C22.8475 42.3575 18.4525 37.9025 14.46 30.9875C10.46 24.055 8.7975 18.0125 9.54 12.8375C9.76469 11.2732 10.4089 9.79889 11.4041 8.57124C12.3993 7.3436 13.7085 6.40841 15.1925 5.86501L15.675 5.70501L17.4675 5.16501Z" fill="#8785A2"/>
</svg>
