<svg width="42" height="15" viewBox="0 0 42 15" fill="none" xmlns="http://www.w3.org/2000/svg">
<rect width="42" height="15" rx="7.5" fill="#8785A2"/>
<path d="M14.5944 10.31C14.3811 10.45 14.1011 10.5633 13.7544 10.65C13.4077 10.7433 13.0411 10.7967 12.6544 10.81C12.0744 10.83 11.5477 10.7467 11.0744 10.56C10.6077 10.3733 10.2111 10.11 9.88441 9.77C9.55775 9.43 9.30441 9.03 9.12441 8.57C8.95108 8.10333 8.86441 7.60333 8.86441 7.07C8.86441 6.54333 8.94108 6.06333 9.09441 5.63C9.25441 5.19667 9.48108 4.82333 9.77441 4.51C10.0677 4.20333 10.4211 3.96667 10.8344 3.8C11.2544 3.62667 11.7244 3.54 12.2444 3.54C12.6111 3.54 12.9444 3.59333 13.2444 3.7C13.5511 3.8 13.8144 3.93 14.0344 4.09C14.2477 4.25667 14.4144 4.44333 14.5344 4.65C14.6544 4.85 14.7144 5.05 14.7144 5.25H13.5644C13.5644 5.14333 13.5344 5.03333 13.4744 4.92C13.4144 4.8 13.3277 4.69333 13.2144 4.6C13.1011 4.5 12.9577 4.42 12.7844 4.36C12.6111 4.29333 12.4144 4.26 12.1944 4.26C12.0011 4.26 11.7777 4.3 11.5244 4.38C11.2711 4.45333 11.0311 4.58667 10.8044 4.78C10.5777 4.98 10.3844 5.25333 10.2244 5.6C10.0711 5.94 9.99441 6.38 9.99441 6.92C9.99441 7.34667 10.0511 7.75333 10.1644 8.14C10.2777 8.52 10.4477 8.85333 10.6744 9.14C10.8944 9.43333 11.1677 9.66333 11.4944 9.83C11.8277 9.99667 12.2077 10.08 12.6344 10.08C12.9211 10.08 13.2211 10.05 13.5344 9.99C13.8477 9.93 14.1377 9.83 14.4044 9.69C14.4844 9.65 14.5544 9.65 14.6144 9.69C14.6811 9.72333 14.7277 9.77667 14.7544 9.85C14.7811 9.92333 14.7811 10.0033 14.7544 10.09C14.7344 10.1767 14.6811 10.25 14.5944 10.31ZM18.5821 10.81C18.0687 10.81 17.6054 10.7233 17.1921 10.55C16.7787 10.3833 16.4287 10.14 16.1421 9.82C15.8554 9.50667 15.6354 9.12667 15.4821 8.68C15.3287 8.23333 15.2521 7.73333 15.2521 7.18C15.2521 6.62667 15.3354 6.12667 15.5021 5.68C15.6687 5.23333 15.8987 4.85 16.1921 4.53C16.4854 4.21667 16.8354 3.97333 17.2421 3.8C17.6487 3.62667 18.0921 3.54 18.5721 3.54C19.0587 3.54 19.5054 3.62667 19.9121 3.8C20.3254 3.96667 20.6754 4.20667 20.9621 4.52C21.2554 4.83333 21.4821 5.21333 21.6421 5.66C21.8087 6.10667 21.8921 6.61 21.8921 7.17C21.8921 7.73 21.8121 8.23333 21.6521 8.68C21.4987 9.12667 21.2754 9.51 20.9821 9.83C20.6954 10.1433 20.3487 10.3833 19.9421 10.55C19.5354 10.7233 19.0821 10.81 18.5821 10.81ZM18.5821 10.07C18.9754 10.07 19.3121 9.99333 19.5921 9.84C19.8787 9.68 20.1121 9.47 20.2921 9.21C20.4787 8.94333 20.6154 8.63667 20.7021 8.29C20.7887 7.93667 20.8321 7.56333 20.8321 7.17C20.8321 6.77 20.7854 6.39333 20.6921 6.04C20.5987 5.68667 20.4621 5.37667 20.2821 5.11C20.0954 4.85 19.8587 4.64333 19.5721 4.49C19.2921 4.33 18.9587 4.25 18.5721 4.25C18.1987 4.25 17.8721 4.33 17.5921 4.49C17.3121 4.64333 17.0754 4.85333 16.8821 5.12C16.6954 5.38667 16.5521 5.7 16.4521 6.06C16.3587 6.41333 16.3121 6.78667 16.3121 7.18C16.3121 7.56 16.3521 7.92667 16.4321 8.28C16.5187 8.62667 16.6554 8.93333 16.8421 9.2C17.0287 9.46667 17.2654 9.68 17.5521 9.84C17.8387 9.99333 18.1821 10.07 18.5821 10.07ZM24.1944 4.93V10.71H23.1744V4.97C23.1744 4.69 23.1311 4.5 23.0444 4.4C22.9577 4.29333 22.8011 4.22667 22.5744 4.2C22.4611 4.19333 22.3877 4.16 22.3544 4.1C22.3211 4.04 22.3044 3.98 22.3044 3.92C22.2977 3.85333 22.3211 3.79 22.3744 3.73C22.4277 3.67 22.4877 3.64 22.5544 3.64H24.7444C24.8977 3.64 25.0811 3.64333 25.2944 3.65C25.5077 3.65667 25.6977 3.66333 25.8644 3.67C26.1044 3.68333 26.3444 3.73 26.5844 3.81C26.8311 3.89 27.0511 4.01 27.2444 4.17C27.4377 4.33 27.5944 4.53 27.7144 4.77C27.8411 5.01 27.9077 5.29333 27.9144 5.62C27.9144 5.92 27.8511 6.19667 27.7244 6.45C27.6044 6.69667 27.4411 6.91 27.2344 7.09C27.0211 7.27667 26.7744 7.42 26.4944 7.52C26.2144 7.62 25.9144 7.67 25.5944 7.67H24.7844C24.6711 7.67 24.5844 7.63333 24.5244 7.56C24.4711 7.48667 24.4444 7.40333 24.4444 7.31C24.4444 7.22333 24.4711 7.14333 24.5244 7.07C24.5777 6.99 24.6611 6.95 24.7744 6.95H25.5544C25.6944 6.95 25.8377 6.93 25.9844 6.89C26.1377 6.84333 26.2744 6.77 26.3944 6.67C26.5144 6.57 26.6144 6.43667 26.6944 6.27C26.7744 6.09667 26.8144 5.88 26.8144 5.62C26.8144 5.14667 26.6777 4.81667 26.4044 4.63C26.1377 4.44333 25.8011 4.35 25.3944 4.35C25.3411 4.35 25.2711 4.35333 25.1844 4.36C25.0977 4.36 25.0077 4.36333 24.9144 4.37C24.8211 4.37 24.7344 4.37333 24.6544 4.38C24.5811 4.38667 24.5311 4.39 24.5044 4.39C24.4311 4.40333 24.3744 4.41667 24.3344 4.43C24.2944 4.43667 24.2644 4.45333 24.2444 4.48C24.2244 4.51333 24.2111 4.56667 24.2044 4.64C24.1977 4.70667 24.1944 4.80333 24.1944 4.93ZM27.9075 4.19C27.7809 4.19 27.6909 4.16 27.6375 4.1C27.5842 4.04 27.5575 3.97 27.5575 3.89C27.5575 3.83 27.5842 3.77333 27.6375 3.72C27.6842 3.66667 27.7442 3.64 27.8175 3.64H28.9775L30.8575 6.51L32.7875 3.64H33.2275C33.3542 3.64 33.4409 3.66333 33.4875 3.71C33.5342 3.75 33.5609 3.79333 33.5675 3.84C33.5742 3.89333 33.5675 3.94 33.5475 3.98C33.5342 4.02 33.5275 4.04 33.5275 4.04L31.2975 7.38V10.71H30.2675V7.38L28.4375 4.65C28.3575 4.55 28.2742 4.45333 28.1875 4.36C28.1009 4.26 28.0075 4.20333 27.9075 4.19Z" fill="#F6F6F6"/>
</svg>
