<svg width="368" height="239" viewBox="0 0 368 239" fill="none" xmlns="http://www.w3.org/2000/svg">
<rect x="1.5" y="1.5" width="365" height="236" rx="8.5" stroke="#91D9FF" stroke-width="3"/>
<path d="M339.991 105.64C339.591 104.12 339.071 102.747 338.431 101.52C337.818 100.32 337.151 99.2 336.431 98.16C335.685 97.12 334.885 96.12 334.031 95.16C333.205 94.2 332.378 93.2133 331.551 92.2C330.911 91.48 330.271 90.7067 329.631 89.88C329.018 89.0533 328.458 88.1733 327.951 87.24C327.445 86.3333 327.031 85.3867 326.711 84.4C326.418 83.4133 326.271 82.4 326.271 81.36C326.271 80.4267 326.445 79.56 326.791 78.76C327.138 77.9333 327.631 77.2267 328.271 76.64C328.885 76.0533 329.605 75.5867 330.431 75.24C331.285 74.8933 332.205 74.72 333.191 74.72C334.098 74.72 334.951 74.8933 335.751 75.24C336.551 75.56 337.245 75.96 337.831 76.44C338.445 76.8933 338.938 77.36 339.311 77.84C339.685 78.32 339.911 78.6933 339.991 78.96C340.045 78.6667 340.258 78.28 340.631 77.8C341.005 77.32 341.498 76.8533 342.111 76.4C342.698 75.92 343.391 75.52 344.191 75.2C344.991 74.8533 345.858 74.68 346.791 74.68C347.751 74.68 348.645 74.8533 349.471 75.2C350.325 75.5467 351.058 76.0133 351.671 76.6C352.311 77.2133 352.805 77.92 353.151 78.72C353.525 79.52 353.711 80.3867 353.711 81.32C353.711 82.3333 353.551 83.3333 353.231 84.32C352.911 85.3067 352.498 86.2667 351.991 87.2C351.485 88.1067 350.911 88.9867 350.271 89.84C349.658 90.6667 349.045 91.44 348.431 92.16C347.578 93.1733 346.725 94.16 345.871 95.12C345.045 96.08 344.258 97.08 343.511 98.12C342.765 99.16 342.085 100.28 341.471 101.48C340.858 102.707 340.365 104.093 339.991 105.64Z" fill="#91D9FF"/>
<path d="M25.3463 60.976C25.3463 60.64 25.4143 60.328 25.5503 60.04C25.6863 59.744 25.8743 59.492 26.1143 59.284C26.3543 59.068 26.6343 58.9 26.9543 58.78C27.2823 58.66 27.6343 58.6 28.0103 58.6C28.3623 58.6 28.6983 58.66 29.0183 58.78C29.3383 58.9 29.6183 59.068 29.8583 59.284C30.1063 59.492 30.3023 59.744 30.4463 60.04C30.5903 60.328 30.6623 60.64 30.6623 60.976C30.6623 61.336 30.5863 61.66 30.4343 61.948C30.2903 62.236 30.0983 62.484 29.8583 62.692C29.6103 62.892 29.3263 63.048 29.0063 63.16C28.6863 63.272 28.3543 63.328 28.0103 63.328C27.6503 63.328 27.3063 63.272 26.9783 63.16C26.6583 63.04 26.3783 62.876 26.1383 62.668C25.8903 62.46 25.6943 62.212 25.5503 61.924C25.4143 61.636 25.3463 61.32 25.3463 60.976ZM26.6663 60.976C26.6663 61.408 26.7943 61.768 27.0503 62.056C27.3063 62.336 27.6263 62.476 28.0103 62.476C28.3863 62.476 28.7023 62.336 28.9583 62.056C29.2143 61.768 29.3423 61.408 29.3423 60.976C29.3423 60.568 29.2103 60.216 28.9463 59.92C28.6823 59.624 28.3703 59.476 28.0103 59.476C27.6263 59.476 27.3063 59.616 27.0503 59.896C26.7943 60.168 26.6663 60.528 26.6663 60.976ZM33.8663 58.36V62.464C33.8663 62.872 33.7783 63.176 33.6023 63.376C33.4343 63.576 33.2063 63.676 32.9183 63.676H32.6183V59.08C32.6183 58.84 32.5823 58.688 32.5103 58.624C32.4383 58.552 32.3143 58.496 32.1383 58.456C31.9223 58.424 31.7703 58.376 31.6823 58.312C31.5943 58.24 31.5503 58.156 31.5503 58.06C31.5503 57.956 31.5983 57.876 31.6943 57.82C31.7983 57.756 31.9103 57.724 32.0303 57.724H33.2543C33.4143 57.724 33.5543 57.788 33.6743 57.916C33.8023 58.044 33.8663 58.192 33.8663 58.36ZM28.0703 66.136H32.4383V65.104H28.3583C28.2383 65.104 28.1383 65.056 28.0583 64.96C27.9783 64.856 27.9383 64.756 27.9383 64.66C27.9383 64.564 27.9783 64.468 28.0583 64.372C28.1383 64.276 28.2463 64.228 28.3823 64.228H33.1343C33.2783 64.228 33.4103 64.276 33.5303 64.372C33.6583 64.468 33.7223 64.596 33.7223 64.756V66.364C33.7223 66.54 33.6663 66.688 33.5543 66.808C33.4503 66.928 33.3223 66.988 33.1703 66.988H29.5823V67.78C29.5823 67.924 29.6103 68.008 29.6663 68.032C29.7303 68.056 29.8103 68.068 29.9063 68.068H33.7103C33.8303 68.068 33.9303 68.12 34.0103 68.224C34.0903 68.336 34.1303 68.432 34.1303 68.512C34.1303 68.616 34.0863 68.716 33.9983 68.812C33.9183 68.908 33.8223 68.956 33.7103 68.956H29.2583C28.9863 68.956 28.7583 68.864 28.5743 68.68C28.3983 68.496 28.3103 68.288 28.3103 68.056V67.312C28.3103 67.128 28.2943 67.008 28.2623 66.952C28.2383 66.888 28.1583 66.836 28.0223 66.796C27.9103 66.772 27.8223 66.732 27.7583 66.676C27.7023 66.62 27.6743 66.544 27.6743 66.448C27.6743 66.352 27.7223 66.276 27.8183 66.22C27.9143 66.164 27.9983 66.136 28.0703 66.136Z" fill="#FF0000"/>
<path d="M28.26 116.556H27.396C27.412 116.38 27.468 116.18 27.564 115.956C27.66 115.732 27.804 115.524 27.996 115.332C28.188 115.14 28.432 114.98 28.728 114.852C29.024 114.716 29.384 114.648 29.808 114.648C30.152 114.648 30.484 114.696 30.804 114.792C31.124 114.888 31.404 115.032 31.644 115.224C31.884 115.416 32.076 115.656 32.22 115.944C32.364 116.224 32.436 116.548 32.436 116.916C32.436 117.188 32.388 117.436 32.292 117.66C32.196 117.876 32.08 118.064 31.944 118.224C31.808 118.392 31.664 118.524 31.512 118.62C31.36 118.716 31.224 118.776 31.104 118.8C31.232 118.84 31.38 118.908 31.548 119.004C31.716 119.1 31.872 119.232 32.016 119.4C32.16 119.568 32.284 119.776 32.388 120.024C32.492 120.272 32.544 120.564 32.544 120.9C32.544 121.308 32.456 121.668 32.28 121.98C32.104 122.292 31.868 122.548 31.572 122.748C31.276 122.956 30.932 123.112 30.54 123.216C30.148 123.32 29.74 123.372 29.316 123.372C28.932 123.372 28.552 123.32 28.176 123.216C27.808 123.12 27.524 122.992 27.324 122.832V121.884C27.556 122.068 27.852 122.212 28.212 122.316C28.58 122.42 28.896 122.472 29.16 122.472C29.392 122.472 29.628 122.448 29.868 122.4C30.116 122.352 30.336 122.264 30.528 122.136C30.728 122 30.892 121.82 31.02 121.596C31.148 121.372 31.212 121.08 31.212 120.72C31.212 120.312 31.108 119.98 30.9 119.724C30.692 119.468 30.444 119.316 30.156 119.268C30.06 119.252 29.924 119.24 29.748 119.232C29.58 119.216 29.496 119.208 29.496 119.208C29.376 119.208 29.284 119.168 29.22 119.088C29.164 119 29.136 118.904 29.136 118.8C29.136 118.696 29.164 118.6 29.22 118.512C29.284 118.424 29.376 118.38 29.496 118.38C29.496 118.38 29.556 118.38 29.676 118.38C29.796 118.372 29.908 118.36 30.012 118.344C30.124 118.328 30.244 118.296 30.372 118.248C30.508 118.2 30.632 118.124 30.744 118.02C30.848 117.916 30.936 117.78 31.008 117.612C31.088 117.436 31.128 117.208 31.128 116.928C31.128 116.448 30.992 116.088 30.72 115.848C30.448 115.608 30.084 115.488 29.628 115.488C29.276 115.488 28.976 115.6 28.728 115.824C28.488 116.04 28.332 116.284 28.26 116.556Z" fill="#FF0000"/>
<path d="M26.592 156.252V149.976C26.592 149.624 26.552 149.384 26.472 149.256C26.4 149.12 26.2 149.112 25.872 149.232C25.808 149.256 25.748 149.28 25.692 149.304C25.636 149.32 25.608 149.328 25.608 149.328C25.512 149.36 25.424 149.356 25.344 149.316C25.272 149.268 25.22 149.208 25.188 149.136C25.148 149.064 25.136 148.988 25.152 148.908C25.176 148.828 25.24 148.764 25.344 148.716L27.24 147.648H27.828V156.252H26.592ZM33 156.372C32.504 156.372 32.08 156.256 31.728 156.024C31.376 155.792 31.092 155.476 30.876 155.076C30.652 154.676 30.488 154.208 30.384 153.672C30.288 153.136 30.24 152.568 30.24 151.968C30.24 151.464 30.284 150.956 30.372 150.444C30.468 149.924 30.624 149.46 30.84 149.052C31.048 148.636 31.328 148.3 31.68 148.044C32.032 147.78 32.468 147.648 32.988 147.648C33.492 147.648 33.92 147.776 34.272 148.032C34.632 148.288 34.92 148.62 35.136 149.028C35.36 149.436 35.52 149.9 35.616 150.42C35.72 150.932 35.772 151.448 35.772 151.968C35.772 152.504 35.72 153.036 35.616 153.564C35.52 154.084 35.364 154.552 35.148 154.968C34.924 155.392 34.636 155.732 34.284 155.988C33.932 156.244 33.504 156.372 33 156.372ZM31.524 151.968C31.524 152.376 31.544 152.792 31.584 153.216C31.632 153.632 31.712 154.012 31.824 154.356C31.936 154.7 32.088 154.98 32.28 155.196C32.472 155.412 32.716 155.52 33.012 155.52C33.308 155.52 33.552 155.408 33.744 155.184C33.936 154.952 34.088 154.66 34.2 154.308C34.312 153.964 34.388 153.584 34.428 153.168C34.476 152.744 34.5 152.344 34.5 151.968C34.5 151.528 34.472 151.1 34.416 150.684C34.36 150.268 34.272 149.896 34.152 149.568C34.032 149.24 33.876 148.976 33.684 148.776C33.492 148.576 33.26 148.476 32.988 148.476C32.692 148.476 32.448 148.58 32.256 148.788C32.064 148.988 31.916 149.252 31.812 149.58C31.7 149.908 31.624 150.28 31.584 150.696C31.544 151.112 31.524 151.536 31.524 151.968Z" fill="#FF0000"/>
<path d="M26.592 190.252V183.976C26.592 183.624 26.552 183.384 26.472 183.256C26.4 183.12 26.2 183.112 25.872 183.232C25.808 183.256 25.748 183.28 25.692 183.304C25.636 183.32 25.608 183.328 25.608 183.328C25.512 183.36 25.424 183.356 25.344 183.316C25.272 183.268 25.22 183.208 25.188 183.136C25.148 183.064 25.136 182.988 25.152 182.908C25.176 182.828 25.24 182.764 25.344 182.716L27.24 181.648H27.828V190.252H26.592ZM31.5 190.252L34.32 182.608H31.848C31.72 182.608 31.604 182.64 31.5 182.704C31.404 182.768 31.308 182.88 31.212 183.04C31.18 183.112 31.144 183.216 31.104 183.352C31.072 183.488 31.056 183.556 31.056 183.556C31.032 183.668 30.98 183.748 30.9 183.796C30.828 183.844 30.752 183.864 30.672 183.856C30.584 183.848 30.504 183.816 30.432 183.76C30.368 183.704 30.336 183.628 30.336 183.532L30.396 181.768H35.7V182.38L32.76 190.252H31.5Z" fill="#FF0000"/>
<path d="M24.372 222.252V221.592C24.404 221.56 24.44 221.528 24.48 221.496C24.52 221.456 24.56 221.416 24.6 221.376C24.648 221.336 24.692 221.292 24.732 221.244C24.78 221.196 24.836 221.144 24.9 221.088C25.06 220.936 25.244 220.744 25.452 220.512C25.668 220.272 25.888 220.012 26.112 219.732C26.336 219.46 26.556 219.18 26.772 218.892C26.988 218.604 27.18 218.324 27.348 218.052C27.54 217.74 27.708 217.404 27.852 217.044C27.996 216.676 28.068 216.292 28.068 215.892C28.068 215.508 27.956 215.188 27.732 214.932C27.508 214.668 27.14 214.536 26.628 214.536C26.404 214.536 26.208 214.58 26.04 214.668C25.872 214.748 25.732 214.852 25.62 214.98C25.5 215.1 25.408 215.236 25.344 215.388C25.28 215.54 25.244 215.684 25.236 215.82H24.204C24.212 215.572 24.268 215.32 24.372 215.064C24.476 214.8 24.632 214.564 24.84 214.356C25.04 214.148 25.296 213.98 25.608 213.852C25.928 213.716 26.304 213.648 26.736 213.648C27.576 213.648 28.224 213.872 28.68 214.32C29.144 214.768 29.376 215.392 29.376 216.192C29.376 216.504 29.292 216.856 29.124 217.248C28.964 217.64 28.76 218.004 28.512 218.34C28.288 218.644 28.036 218.96 27.756 219.288C27.484 219.616 27.22 219.928 26.964 220.224C26.7 220.512 26.464 220.764 26.256 220.98C26.048 221.196 25.9 221.34 25.812 221.412H27.744C28.088 221.412 28.352 221.36 28.536 221.256C28.72 221.152 28.856 220.884 28.944 220.452C28.96 220.372 29.004 220.316 29.076 220.284C29.148 220.244 29.22 220.228 29.292 220.236C29.372 220.244 29.44 220.272 29.496 220.32C29.56 220.36 29.592 220.412 29.592 220.476L29.472 222.252H24.372ZM33.564 222.252V219.984H30.096V219.18L33.576 213.648H34.764V219.06H35.916V219.984H34.764V222.252H33.564ZM33.564 215.448L31.32 219.06H33.564V215.448Z" fill="#FF0000"/>
<path d="M77.7423 59.956C77.7423 59.708 77.7983 59.468 77.9103 59.236C78.0223 59.004 78.1863 58.796 78.4023 58.612C78.6103 58.428 78.8623 58.28 79.1583 58.168C79.4623 58.056 79.8023 58 80.1783 58C80.5463 58 80.8783 58.056 81.1743 58.168C81.4703 58.28 81.7263 58.428 81.9423 58.612C82.1503 58.796 82.3103 59.008 82.4223 59.248C82.5343 59.48 82.5903 59.716 82.5903 59.956C82.5903 60.212 82.5303 60.456 82.4103 60.688C82.2983 60.912 82.1343 61.116 81.9183 61.3C81.7103 61.476 81.4583 61.616 81.1623 61.72C80.8663 61.824 80.5383 61.876 80.1783 61.876C79.8023 61.876 79.4623 61.824 79.1583 61.72C78.8623 61.608 78.6103 61.46 78.4023 61.276C78.1863 61.1 78.0223 60.896 77.9103 60.664C77.7983 60.432 77.7423 60.196 77.7423 59.956ZM79.0383 59.956C79.0383 60.188 79.1343 60.42 79.3263 60.652C79.5183 60.884 79.8023 61 80.1783 61C80.5303 61 80.8023 60.888 80.9943 60.664C81.1943 60.432 81.2943 60.196 81.2943 59.956C81.2943 59.7 81.1983 59.464 81.0063 59.248C80.8143 59.024 80.5383 58.912 80.1783 58.912C79.8023 58.912 79.5183 59.02 79.3263 59.236C79.1343 59.452 79.0383 59.692 79.0383 59.956ZM86.0463 58.348V63.22C86.0463 63.612 85.9543 63.912 85.7703 64.12C85.5943 64.328 85.3623 64.432 85.0743 64.432H84.7623V64.108H82.4463C82.3743 64.108 82.2903 64.068 82.1943 63.988C82.1063 63.9 82.0623 63.796 82.0623 63.676C82.0623 63.548 82.1063 63.444 82.1943 63.364C82.2903 63.276 82.3863 63.232 82.4823 63.232H84.7623V59.08C84.7623 58.832 84.7263 58.676 84.6543 58.612C84.5823 58.54 84.4503 58.484 84.2583 58.444C84.0423 58.42 83.8863 58.376 83.7903 58.312C83.7023 58.248 83.6583 58.168 83.6583 58.072C83.6583 57.96 83.7143 57.876 83.8263 57.82C83.9463 57.756 84.0663 57.724 84.1863 57.724H85.4343C85.5783 57.724 85.7143 57.788 85.8423 57.916C85.9783 58.036 86.0463 58.18 86.0463 58.348ZM84.1023 62.536C83.9343 62.624 83.7263 62.704 83.4783 62.776C83.2383 62.84 82.9823 62.892 82.7103 62.932C82.4303 62.98 82.1423 63.016 81.8463 63.04C81.5583 63.056 81.2823 63.064 81.0183 63.064H81.0063V63.232C81.0063 63.64 80.9183 63.956 80.7423 64.18C80.5663 64.396 80.3543 64.504 80.1063 64.504H79.7223V63.064H77.5023C77.3663 63.064 77.2583 63.016 77.1783 62.92C77.0983 62.816 77.0583 62.716 77.0583 62.62C77.0583 62.532 77.0983 62.432 77.1783 62.32C77.2663 62.208 77.3783 62.152 77.5143 62.152H80.9463C81.4663 62.152 81.9583 62.144 82.4223 62.128C82.8943 62.112 83.3583 62.052 83.8143 61.948C83.9823 61.916 84.1103 61.92 84.1983 61.96C84.2863 61.992 84.3383 62.044 84.3543 62.116C84.3703 62.188 84.3543 62.264 84.3063 62.344C84.2663 62.424 84.1983 62.488 84.1023 62.536ZM79.9983 66.388H84.4863V65.668H80.2743C80.1543 65.668 80.0543 65.616 79.9743 65.512C79.9023 65.408 79.8663 65.312 79.8663 65.224C79.8663 65.12 79.9063 65.02 79.9863 64.924C80.0663 64.82 80.1703 64.768 80.2983 64.768H85.1823C85.3423 64.768 85.4783 64.82 85.5903 64.924C85.7103 65.02 85.7703 65.16 85.7703 65.344V66.628C85.7703 66.796 85.7223 66.94 85.6263 67.06C85.5383 67.188 85.4103 67.252 85.2423 67.252H81.4983V67.78C81.4983 67.908 81.5223 67.984 81.5703 68.008C81.6263 68.032 81.7023 68.044 81.7983 68.044H85.7703C85.9063 68.044 86.0063 68.096 86.0703 68.2C86.1423 68.312 86.1783 68.408 86.1783 68.488C86.1783 68.608 86.1383 68.716 86.0583 68.812C85.9863 68.908 85.8903 68.956 85.7703 68.956H81.2223C80.9263 68.956 80.6863 68.86 80.5023 68.668C80.3183 68.484 80.2263 68.272 80.2263 68.032V67.552C80.2263 67.376 80.2103 67.256 80.1783 67.192C80.1463 67.136 80.0663 67.088 79.9383 67.048C79.8343 67.024 79.7503 66.988 79.6863 66.94C79.6303 66.884 79.6023 66.808 79.6023 66.712C79.6023 66.608 79.6503 66.528 79.7463 66.472C79.8423 66.416 79.9263 66.388 79.9983 66.388Z" fill="#3E3E47"/>
<path d="M185.615 32.315V24.47C185.615 24.03 185.565 23.73 185.465 23.57C185.375 23.4 185.125 23.39 184.715 23.54C184.635 23.57 184.56 23.6 184.49 23.63C184.42 23.65 184.385 23.66 184.385 23.66C184.265 23.7 184.155 23.695 184.055 23.645C183.965 23.585 183.9 23.51 183.86 23.42C183.81 23.33 183.795 23.235 183.815 23.135C183.845 23.035 183.925 22.955 184.055 22.895L186.425 21.56H187.16V32.315H185.615ZM193.115 32.315V24.47C193.115 24.03 193.065 23.73 192.965 23.57C192.875 23.4 192.625 23.39 192.215 23.54C192.135 23.57 192.06 23.6 191.99 23.63C191.92 23.65 191.885 23.66 191.885 23.66C191.765 23.7 191.655 23.695 191.555 23.645C191.465 23.585 191.4 23.51 191.36 23.42C191.31 23.33 191.295 23.235 191.315 23.135C191.345 23.035 191.425 22.955 191.555 22.895L193.925 21.56H194.66V32.315H193.115ZM198.425 23.195C198.425 22.885 198.495 22.585 198.635 22.295C198.775 22.005 198.98 21.745 199.25 21.515C199.51 21.285 199.825 21.1 200.195 20.96C200.575 20.82 201 20.75 201.47 20.75C201.93 20.75 202.345 20.82 202.715 20.96C203.085 21.1 203.405 21.285 203.675 21.515C203.935 21.745 204.135 22.01 204.275 22.31C204.415 22.6 204.485 22.895 204.485 23.195C204.485 23.515 204.41 23.82 204.26 24.11C204.12 24.39 203.915 24.645 203.645 24.875C203.385 25.095 203.07 25.27 202.7 25.4C202.33 25.53 201.92 25.595 201.47 25.595C201 25.595 200.575 25.53 200.195 25.4C199.825 25.26 199.51 25.075 199.25 24.845C198.98 24.625 198.775 24.37 198.635 24.08C198.495 23.79 198.425 23.495 198.425 23.195ZM200.045 23.195C200.045 23.485 200.165 23.775 200.405 24.065C200.645 24.355 201 24.5 201.47 24.5C201.91 24.5 202.25 24.36 202.49 24.08C202.74 23.79 202.865 23.495 202.865 23.195C202.865 22.875 202.745 22.58 202.505 22.31C202.265 22.03 201.92 21.89 201.47 21.89C201 21.89 200.645 22.025 200.405 22.295C200.165 22.565 200.045 22.865 200.045 23.195ZM208.805 21.185V27.275C208.805 27.765 208.69 28.14 208.46 28.4C208.24 28.66 207.95 28.79 207.59 28.79H207.2V28.385H204.305C204.215 28.385 204.11 28.335 203.99 28.235C203.88 28.125 203.825 27.995 203.825 27.845C203.825 27.685 203.88 27.555 203.99 27.455C204.11 27.345 204.23 27.29 204.35 27.29H207.2V22.1C207.2 21.79 207.155 21.595 207.065 21.515C206.975 21.425 206.81 21.355 206.57 21.305C206.3 21.275 206.105 21.22 205.985 21.14C205.875 21.06 205.82 20.96 205.82 20.84C205.82 20.7 205.89 20.595 206.03 20.525C206.18 20.445 206.33 20.405 206.48 20.405H208.04C208.22 20.405 208.39 20.485 208.55 20.645C208.72 20.795 208.805 20.975 208.805 21.185ZM206.375 26.42C206.165 26.53 205.905 26.63 205.595 26.72C205.295 26.8 204.975 26.865 204.635 26.915C204.285 26.975 203.925 27.02 203.555 27.05C203.195 27.07 202.85 27.08 202.52 27.08H202.505V27.29C202.505 27.8 202.395 28.195 202.175 28.475C201.955 28.745 201.69 28.88 201.38 28.88H200.9V27.08H198.125C197.955 27.08 197.82 27.02 197.72 26.9C197.62 26.77 197.57 26.645 197.57 26.525C197.57 26.415 197.62 26.29 197.72 26.15C197.83 26.01 197.97 25.94 198.14 25.94H202.43C203.08 25.94 203.695 25.93 204.275 25.91C204.865 25.89 205.445 25.815 206.015 25.685C206.225 25.645 206.385 25.65 206.495 25.7C206.605 25.74 206.67 25.805 206.69 25.895C206.71 25.985 206.69 26.08 206.63 26.18C206.58 26.28 206.495 26.36 206.375 26.42ZM201.245 31.235H206.855V30.335H201.59C201.44 30.335 201.315 30.27 201.215 30.14C201.125 30.01 201.08 29.89 201.08 29.78C201.08 29.65 201.13 29.525 201.23 29.405C201.33 29.275 201.46 29.21 201.62 29.21H207.725C207.925 29.21 208.095 29.275 208.235 29.405C208.385 29.525 208.46 29.7 208.46 29.93V31.535C208.46 31.745 208.4 31.925 208.28 32.075C208.17 32.235 208.01 32.315 207.8 32.315H203.12V32.975C203.12 33.135 203.15 33.23 203.21 33.26C203.28 33.29 203.375 33.305 203.495 33.305H208.46C208.63 33.305 208.755 33.37 208.835 33.5C208.925 33.64 208.97 33.76 208.97 33.86C208.97 34.01 208.92 34.145 208.82 34.265C208.73 34.385 208.61 34.445 208.46 34.445H202.775C202.405 34.445 202.105 34.325 201.875 34.085C201.645 33.855 201.53 33.59 201.53 33.29V32.69C201.53 32.47 201.51 32.32 201.47 32.24C201.43 32.17 201.33 32.11 201.17 32.06C201.04 32.03 200.935 31.985 200.855 31.925C200.785 31.855 200.75 31.76 200.75 31.64C200.75 31.51 200.81 31.41 200.93 31.34C201.05 31.27 201.155 31.235 201.245 31.235ZM265.918 32.315V23.78C265.918 23.39 265.853 23.09 265.723 22.88C265.603 22.66 265.378 22.545 265.048 22.535C264.908 22.535 264.803 22.495 264.733 22.415C264.663 22.325 264.628 22.22 264.628 22.1C264.628 22 264.663 21.91 264.733 21.83C264.813 21.75 264.898 21.71 264.988 21.71H267.718L272.158 29.765V21.71H273.478V31.55C273.478 31.71 273.403 31.875 273.253 32.045C273.103 32.225 272.923 32.315 272.713 32.315H272.038L267.208 23.795V32.315H265.918ZM278.76 32.465C278.26 32.465 277.78 32.385 277.32 32.225C276.87 32.065 276.475 31.825 276.135 31.505C275.785 31.185 275.505 30.79 275.295 30.32C275.095 29.84 274.995 29.29 274.995 28.67C274.995 28.15 275.08 27.655 275.25 27.185C275.42 26.705 275.665 26.29 275.985 25.94C276.305 25.59 276.695 25.31 277.155 25.1C277.615 24.89 278.14 24.785 278.73 24.785C279.27 24.785 279.77 24.88 280.23 25.07C280.69 25.25 281.09 25.505 281.43 25.835C281.77 26.175 282.035 26.585 282.225 27.065C282.425 27.535 282.525 28.065 282.525 28.655C282.525 29.245 282.425 29.775 282.225 30.245C282.035 30.715 281.77 31.115 281.43 31.445C281.1 31.775 280.705 32.025 280.245 32.195C279.785 32.375 279.29 32.465 278.76 32.465ZM276.585 28.67C276.585 29.05 276.625 29.41 276.705 29.75C276.795 30.09 276.93 30.39 277.11 30.65C277.29 30.91 277.515 31.115 277.785 31.265C278.065 31.415 278.395 31.49 278.775 31.49C279.125 31.49 279.43 31.415 279.69 31.265C279.96 31.105 280.185 30.895 280.365 30.635C280.545 30.375 280.68 30.075 280.77 29.735C280.86 29.395 280.905 29.035 280.905 28.655C280.905 28.285 280.86 27.93 280.77 27.59C280.68 27.24 280.545 26.93 280.365 26.66C280.185 26.39 279.955 26.175 279.675 26.015C279.405 25.845 279.085 25.76 278.715 25.76C278.345 25.76 278.025 25.84 277.755 26C277.495 26.16 277.275 26.37 277.095 26.63C276.925 26.9 276.795 27.21 276.705 27.56C276.625 27.91 276.585 28.28 276.585 28.67ZM283.01 25.7C282.94 25.7 282.87 25.67 282.8 25.61C282.73 25.54 282.695 25.435 282.695 25.295C282.695 25.175 282.73 25.085 282.8 25.025C282.87 24.965 282.95 24.935 283.04 24.935H284.915L287.27 30.02L289.355 24.935H289.91C290.09 24.935 290.22 24.965 290.3 25.025C290.38 25.085 290.43 25.15 290.45 25.22C290.47 25.3 290.475 25.37 290.465 25.43C290.455 25.48 290.45 25.505 290.45 25.505L287.6 32.315H286.715L283.865 26.255C283.835 26.195 283.8 26.13 283.76 26.06C283.73 25.99 283.685 25.93 283.625 25.88C283.565 25.83 283.485 25.79 283.385 25.76C283.285 25.72 283.16 25.7 283.01 25.7ZM294.786 32.465C294.246 32.465 293.741 32.375 293.271 32.195C292.801 32.015 292.386 31.745 292.026 31.385C291.676 31.035 291.401 30.605 291.201 30.095C291.001 29.585 290.901 29.005 290.901 28.355C290.901 27.785 290.991 27.28 291.171 26.84C291.361 26.39 291.621 26.015 291.951 25.715C292.291 25.415 292.686 25.185 293.136 25.025C293.596 24.865 294.096 24.785 294.636 24.785C295.026 24.785 295.416 24.86 295.806 25.01C296.206 25.15 296.561 25.355 296.871 25.625C297.191 25.905 297.451 26.25 297.651 26.66C297.851 27.06 297.951 27.52 297.951 28.04V28.895H292.476C292.546 29.645 292.801 30.245 293.241 30.695C293.691 31.135 294.331 31.395 295.161 31.475C295.301 31.495 295.571 31.485 295.971 31.445C296.381 31.405 296.796 31.295 297.216 31.115C297.336 31.065 297.441 31.065 297.531 31.115C297.631 31.165 297.701 31.235 297.741 31.325C297.781 31.425 297.786 31.53 297.756 31.64C297.726 31.75 297.646 31.84 297.516 31.91C297.136 32.12 296.736 32.265 296.316 32.345C295.896 32.425 295.386 32.465 294.786 32.465ZM294.591 25.7C294.101 25.7 293.641 25.865 293.211 26.195C292.791 26.525 292.546 27.075 292.476 27.845H296.421C296.421 27.065 296.231 26.515 295.851 26.195C295.471 25.865 295.051 25.7 294.591 25.7ZM299.202 25.91C299.132 25.87 299.047 25.84 298.947 25.82C298.857 25.79 298.767 25.775 298.677 25.775C298.527 25.775 298.417 25.73 298.347 25.64C298.267 25.55 298.227 25.445 298.227 25.325C298.227 25.225 298.267 25.135 298.347 25.055C298.417 24.975 298.502 24.935 298.602 24.935H300.177C300.417 24.935 300.607 25.015 300.747 25.175C300.897 25.325 300.972 25.42 300.972 25.46V26.015C301.002 25.945 301.062 25.845 301.152 25.715C301.242 25.575 301.372 25.435 301.542 25.295C301.712 25.165 301.922 25.05 302.172 24.95C302.422 24.84 302.717 24.785 303.057 24.785C303.707 24.785 304.197 24.935 304.527 25.235C304.867 25.535 305.082 25.84 305.172 26.15C305.172 26.15 305.207 26.08 305.277 25.94C305.347 25.8 305.467 25.645 305.637 25.475C305.817 25.305 306.047 25.15 306.327 25.01C306.617 24.86 306.977 24.785 307.407 24.785C308.117 24.785 308.652 25.025 309.012 25.505C309.382 25.985 309.567 26.615 309.567 27.395V32.315H308.097V27.785C308.097 27.285 308.017 26.865 307.857 26.525C307.707 26.175 307.412 26 306.972 26C306.682 26 306.432 26.095 306.222 26.285C306.012 26.465 305.832 26.685 305.682 26.945C305.542 27.215 305.437 27.5 305.367 27.8C305.297 28.09 305.262 28.35 305.262 28.58V32.315H303.792V27.365C303.792 27.005 303.717 26.685 303.567 26.405C303.417 26.125 303.132 25.985 302.712 25.985C302.502 25.985 302.292 26.065 302.082 26.225C301.882 26.375 301.697 26.57 301.527 26.81C301.367 27.06 301.232 27.35 301.122 27.68C301.022 28 300.972 28.33 300.972 28.67V32.315H299.502V26.975C299.502 26.845 299.497 26.73 299.487 26.63C299.487 26.52 299.477 26.42 299.457 26.33C299.447 26.24 299.417 26.165 299.367 26.105C299.327 26.035 299.272 25.97 299.202 25.91ZM313.089 27.965V29.69C313.089 29.89 313.124 30.1 313.194 30.32C313.264 30.53 313.379 30.72 313.539 30.89C313.689 31.07 313.879 31.215 314.109 31.325C314.349 31.435 314.634 31.49 314.964 31.49C315.574 31.49 316.044 31.225 316.374 30.695C316.714 30.155 316.884 29.48 316.884 28.67C316.884 28.33 316.849 27.99 316.779 27.65C316.719 27.31 316.609 27.005 316.449 26.735C316.299 26.465 316.094 26.25 315.834 26.09C315.584 25.92 315.274 25.835 314.904 25.835C314.614 25.835 314.354 25.9 314.124 26.03C313.904 26.15 313.719 26.315 313.569 26.525C313.409 26.725 313.289 26.955 313.209 27.215C313.129 27.465 313.089 27.715 313.089 27.965ZM311.589 32.315V23.51C311.589 23.39 311.584 23.28 311.574 23.18C311.574 23.07 311.564 22.97 311.544 22.88C311.534 22.79 311.504 22.715 311.454 22.655C311.414 22.585 311.359 22.52 311.289 22.46C311.219 22.42 311.134 22.385 311.034 22.355C310.944 22.325 310.854 22.31 310.764 22.31C310.614 22.31 310.499 22.275 310.419 22.205C310.339 22.125 310.299 22.015 310.299 21.875C310.299 21.745 310.339 21.65 310.419 21.59C310.499 21.52 310.589 21.485 310.689 21.485H312.264C312.504 21.485 312.694 21.57 312.834 21.74C312.984 21.91 313.059 22.07 313.059 22.22V25.685C313.089 25.635 313.159 25.56 313.269 25.46C313.389 25.36 313.544 25.26 313.734 25.16C313.914 25.06 314.129 24.975 314.379 24.905C314.629 24.825 314.909 24.785 315.219 24.785C315.789 24.785 316.279 24.895 316.689 25.115C317.099 25.335 317.434 25.625 317.694 25.985C317.954 26.345 318.144 26.755 318.264 27.215C318.394 27.675 318.459 28.145 318.459 28.625C318.459 29.105 318.389 29.575 318.249 30.035C318.119 30.495 317.919 30.905 317.649 31.265C317.369 31.625 317.014 31.915 316.584 32.135C316.164 32.355 315.659 32.465 315.069 32.465C314.529 32.465 314.079 32.39 313.719 32.24C313.359 32.09 313.089 31.92 312.909 31.73C312.909 31.73 312.844 31.815 312.714 31.985C312.594 32.145 312.414 32.25 312.174 32.3C312.084 32.32 311.964 32.325 311.814 32.315C311.664 32.315 311.589 32.315 311.589 32.315ZM323.219 32.465C322.679 32.465 322.174 32.375 321.704 32.195C321.234 32.015 320.819 31.745 320.459 31.385C320.109 31.035 319.834 30.605 319.634 30.095C319.434 29.585 319.334 29.005 319.334 28.355C319.334 27.785 319.424 27.28 319.604 26.84C319.794 26.39 320.054 26.015 320.384 25.715C320.724 25.415 321.119 25.185 321.569 25.025C322.029 24.865 322.529 24.785 323.069 24.785C323.459 24.785 323.849 24.86 324.239 25.01C324.639 25.15 324.994 25.355 325.304 25.625C325.624 25.905 325.884 26.25 326.084 26.66C326.284 27.06 326.384 27.52 326.384 28.04V28.895H320.909C320.979 29.645 321.234 30.245 321.674 30.695C322.124 31.135 322.764 31.395 323.594 31.475C323.734 31.495 324.004 31.485 324.404 31.445C324.814 31.405 325.229 31.295 325.649 31.115C325.769 31.065 325.874 31.065 325.964 31.115C326.064 31.165 326.134 31.235 326.174 31.325C326.214 31.425 326.219 31.53 326.189 31.64C326.159 31.75 326.079 31.84 325.949 31.91C325.569 32.12 325.169 32.265 324.749 32.345C324.329 32.425 323.819 32.465 323.219 32.465ZM323.024 25.7C322.534 25.7 322.074 25.865 321.644 26.195C321.224 26.525 320.979 27.075 320.909 27.845H324.854C324.854 27.065 324.664 26.515 324.284 26.195C323.904 25.865 323.484 25.7 323.024 25.7ZM328.07 32.315V26.975C328.07 26.845 328.065 26.73 328.055 26.63C328.055 26.52 328.045 26.42 328.025 26.33C328.015 26.24 327.985 26.165 327.935 26.105C327.895 26.035 327.84 25.97 327.77 25.91C327.7 25.87 327.615 25.84 327.515 25.82C327.425 25.79 327.335 25.775 327.245 25.775C327.095 25.775 326.98 25.73 326.9 25.64C326.83 25.55 326.795 25.445 326.795 25.325C326.795 25.225 326.83 25.135 326.9 25.055C326.98 24.975 327.07 24.935 327.17 24.935H328.76C329 24.935 329.19 25.015 329.33 25.175C329.48 25.335 329.555 25.455 329.555 25.535V26.075C329.565 26.015 329.62 25.915 329.72 25.775C329.83 25.635 329.98 25.495 330.17 25.355C330.36 25.215 330.585 25.095 330.845 24.995C331.115 24.885 331.425 24.83 331.775 24.83H332.6V26.33C331.59 26.18 330.83 26.29 330.32 26.66C329.81 27.03 329.555 27.695 329.555 28.655V32.315H328.07Z" fill="#3E3E47"/>
<path d="M82.564 123.252V120.984H79.096V120.18L82.576 114.648H83.764V120.06H84.916V120.984H83.764V123.252H82.564ZM82.564 116.448L80.32 120.06H82.564V116.448Z" fill="#3E3E47"/>
<path d="M78.592 156.252V149.976C78.592 149.624 78.552 149.384 78.472 149.256C78.4 149.12 78.2 149.112 77.872 149.232C77.808 149.256 77.748 149.28 77.692 149.304C77.636 149.32 77.608 149.328 77.608 149.328C77.512 149.36 77.424 149.356 77.344 149.316C77.272 149.268 77.22 149.208 77.188 149.136C77.148 149.064 77.136 148.988 77.152 148.908C77.176 148.828 77.24 148.764 77.344 148.716L79.24 147.648H79.828V156.252H78.592ZM84.592 156.252V149.976C84.592 149.624 84.552 149.384 84.472 149.256C84.4 149.12 84.2 149.112 83.872 149.232C83.808 149.256 83.748 149.28 83.692 149.304C83.636 149.32 83.608 149.328 83.608 149.328C83.512 149.36 83.424 149.356 83.344 149.316C83.272 149.268 83.22 149.208 83.188 149.136C83.148 149.064 83.136 148.988 83.152 148.908C83.176 148.828 83.24 148.764 83.344 148.716L85.24 147.648H85.828V156.252H84.592Z" fill="#3E3E47"/>
<path d="M78.592 190.252V183.976C78.592 183.624 78.552 183.384 78.472 183.256C78.4 183.12 78.2 183.112 77.872 183.232C77.808 183.256 77.748 183.28 77.692 183.304C77.636 183.32 77.608 183.328 77.608 183.328C77.512 183.36 77.424 183.356 77.344 183.316C77.272 183.268 77.22 183.208 77.188 183.136C77.148 183.064 77.136 182.988 77.152 182.908C77.176 182.828 77.24 182.764 77.344 182.716L79.24 181.648H79.828V190.252H78.592ZM84.976 190.372C84.544 190.372 84.16 190.312 83.824 190.192C83.488 190.072 83.2 189.904 82.96 189.688C82.728 189.472 82.552 189.216 82.432 188.92C82.312 188.624 82.252 188.304 82.252 187.96C82.252 187.64 82.296 187.352 82.384 187.096C82.48 186.832 82.6 186.604 82.744 186.412C82.888 186.228 83.044 186.08 83.212 185.968C83.388 185.856 83.552 185.78 83.704 185.74C83.592 185.708 83.464 185.652 83.32 185.572C83.176 185.484 83.036 185.36 82.9 185.2C82.772 185.048 82.66 184.86 82.564 184.636C82.476 184.404 82.432 184.124 82.432 183.796C82.432 183.5 82.492 183.22 82.612 182.956C82.732 182.692 82.9 182.464 83.116 182.272C83.34 182.08 83.608 181.928 83.92 181.816C84.232 181.704 84.58 181.648 84.964 181.648C85.324 181.648 85.656 181.696 85.96 181.792C86.272 181.888 86.544 182.028 86.776 182.212C87.008 182.404 87.188 182.636 87.316 182.908C87.452 183.18 87.52 183.496 87.52 183.856C87.52 184.136 87.476 184.384 87.388 184.6C87.3 184.816 87.188 185.004 87.052 185.164C86.924 185.324 86.784 185.456 86.632 185.56C86.488 185.656 86.356 185.72 86.236 185.752C86.364 185.784 86.516 185.848 86.692 185.944C86.868 186.032 87.032 186.16 87.184 186.328C87.336 186.504 87.464 186.72 87.568 186.976C87.68 187.224 87.736 187.524 87.736 187.876C87.736 188.612 87.484 189.212 86.98 189.676C86.484 190.14 85.816 190.372 84.976 190.372ZM83.668 183.844C83.668 184.036 83.692 184.224 83.74 184.408C83.788 184.592 83.868 184.756 83.98 184.9C84.084 185.044 84.216 185.16 84.376 185.248C84.544 185.336 84.74 185.38 84.964 185.38C85.388 185.38 85.708 185.256 85.924 185.008C86.148 184.76 86.26 184.372 86.26 183.844C86.26 183.412 86.148 183.064 85.924 182.8C85.708 182.536 85.388 182.404 84.964 182.404C84.548 182.404 84.228 182.532 84.004 182.788C83.78 183.036 83.668 183.388 83.668 183.844ZM83.548 187.9C83.548 188.404 83.664 188.812 83.896 189.124C84.128 189.428 84.484 189.58 84.964 189.58C85.38 189.58 85.732 189.44 86.02 189.16C86.308 188.872 86.452 188.448 86.452 187.888C86.452 187.328 86.316 186.896 86.044 186.592C85.78 186.288 85.42 186.136 84.964 186.136C84.508 186.136 84.156 186.296 83.908 186.616C83.668 186.928 83.548 187.356 83.548 187.9Z" fill="#3E3E47"/>
<path d="M76.372 222.252V221.592C76.404 221.56 76.44 221.528 76.48 221.496C76.52 221.456 76.56 221.416 76.6 221.376C76.648 221.336 76.692 221.292 76.732 221.244C76.78 221.196 76.836 221.144 76.9 221.088C77.06 220.936 77.244 220.744 77.452 220.512C77.668 220.272 77.888 220.012 78.112 219.732C78.336 219.46 78.556 219.18 78.772 218.892C78.988 218.604 79.18 218.324 79.348 218.052C79.54 217.74 79.708 217.404 79.852 217.044C79.996 216.676 80.068 216.292 80.068 215.892C80.068 215.508 79.956 215.188 79.732 214.932C79.508 214.668 79.14 214.536 78.628 214.536C78.404 214.536 78.208 214.58 78.04 214.668C77.872 214.748 77.732 214.852 77.62 214.98C77.5 215.1 77.408 215.236 77.344 215.388C77.28 215.54 77.244 215.684 77.236 215.82H76.204C76.212 215.572 76.268 215.32 76.372 215.064C76.476 214.8 76.632 214.564 76.84 214.356C77.04 214.148 77.296 213.98 77.608 213.852C77.928 213.716 78.304 213.648 78.736 213.648C79.576 213.648 80.224 213.872 80.68 214.32C81.144 214.768 81.376 215.392 81.376 216.192C81.376 216.504 81.292 216.856 81.124 217.248C80.964 217.64 80.76 218.004 80.512 218.34C80.288 218.644 80.036 218.96 79.756 219.288C79.484 219.616 79.22 219.928 78.964 220.224C78.7 220.512 78.464 220.764 78.256 220.98C78.048 221.196 77.9 221.34 77.812 221.412H79.744C80.088 221.412 80.352 221.36 80.536 221.256C80.72 221.152 80.856 220.884 80.944 220.452C80.96 220.372 81.004 220.316 81.076 220.284C81.148 220.244 81.22 220.228 81.292 220.236C81.372 220.244 81.44 220.272 81.496 220.32C81.56 220.36 81.592 220.412 81.592 220.476L81.472 222.252H76.372ZM83.956 214.692L83.812 217.188C83.86 217.156 83.996 217.1 84.22 217.02C84.444 216.932 84.7 216.884 84.988 216.876C85.38 216.868 85.74 216.928 86.068 217.056C86.404 217.176 86.692 217.356 86.932 217.596C87.172 217.828 87.356 218.108 87.484 218.436C87.62 218.764 87.688 219.12 87.688 219.504C87.688 219.976 87.6 220.392 87.424 220.752C87.248 221.104 87.012 221.4 86.716 221.64C86.42 221.88 86.084 222.06 85.708 222.18C85.332 222.308 84.94 222.372 84.532 222.372C84.076 222.372 83.672 222.332 83.32 222.252C82.976 222.172 82.672 222.04 82.408 221.856V220.92C82.696 221.112 83.028 221.248 83.404 221.328C83.788 221.408 84.128 221.448 84.424 221.448C85.048 221.448 85.528 221.26 85.864 220.884C86.208 220.5 86.38 220.02 86.38 219.444C86.38 218.996 86.244 218.604 85.972 218.268C85.708 217.924 85.36 217.752 84.928 217.752C84.664 217.752 84.404 217.812 84.148 217.932C83.892 218.052 83.692 218.22 83.548 218.436H82.624L82.852 213.768H87.112V214.692H83.956Z" fill="#3E3E47"/>
<path d="M131.295 61.96C131.199 61.936 131.131 61.896 131.091 61.84C131.051 61.784 131.051 61.708 131.091 61.612C131.131 61.516 131.207 61.456 131.319 61.432C131.439 61.408 131.523 61.396 131.571 61.396C131.987 61.396 132.359 61.524 132.687 61.78C133.023 62.028 133.191 62.384 133.191 62.848C133.191 63.336 133.031 63.74 132.711 64.06C132.399 64.38 132.019 64.588 131.571 64.684V65.584C132.075 65.584 132.547 65.576 132.987 65.56C133.435 65.536 133.871 65.464 134.295 65.344C134.455 65.304 134.579 65.304 134.667 65.344C134.755 65.376 134.807 65.428 134.823 65.5C134.839 65.572 134.823 65.652 134.775 65.74C134.735 65.82 134.671 65.884 134.583 65.932C134.415 66.028 134.211 66.112 133.971 66.184C133.731 66.248 133.471 66.304 133.191 66.352C132.919 66.4 132.635 66.436 132.339 66.46C132.043 66.476 131.755 66.484 131.475 66.484H128.079C127.943 66.484 127.839 66.436 127.767 66.34C127.695 66.236 127.659 66.132 127.659 66.028C127.659 65.94 127.699 65.844 127.779 65.74C127.867 65.636 127.971 65.584 128.091 65.584H130.287V64.66C129.815 64.54 129.431 64.304 129.135 63.952C128.839 63.592 128.691 63.184 128.691 62.728C128.691 62.424 128.751 62.14 128.871 61.876C128.999 61.604 129.195 61.364 129.459 61.156H128.187C128.083 61.156 127.999 61.104 127.935 61C127.871 60.888 127.839 60.784 127.839 60.688C127.839 60.6 127.871 60.512 127.935 60.424C128.007 60.328 128.099 60.28 128.211 60.28H133.323C133.443 60.28 133.543 60.328 133.623 60.424C133.703 60.52 133.743 60.612 133.743 60.7C133.743 60.796 133.703 60.896 133.623 61C133.543 61.104 133.443 61.156 133.323 61.156H131.307C130.891 61.212 130.567 61.372 130.335 61.636C130.103 61.892 129.987 62.224 129.987 62.632C129.987 63.008 130.079 63.296 130.263 63.496C130.455 63.696 130.687 63.796 130.959 63.796C131.223 63.796 131.443 63.712 131.619 63.544C131.795 63.376 131.883 63.148 131.883 62.86C131.883 62.596 131.835 62.4 131.739 62.272C131.651 62.136 131.503 62.032 131.295 61.96ZM129.951 59.344L129.315 58.876C129.211 58.804 129.155 58.716 129.147 58.612C129.147 58.5 129.187 58.396 129.267 58.3C129.339 58.228 129.435 58.2 129.555 58.216C129.683 58.224 129.807 58.252 129.927 58.3C130.087 58.38 130.227 58.448 130.347 58.504C130.467 58.552 130.587 58.588 130.707 58.612C130.827 58.644 130.963 58.668 131.115 58.684C131.267 58.692 131.455 58.696 131.679 58.696C131.847 58.696 131.979 58.74 132.075 58.828C132.179 58.908 132.231 59.008 132.231 59.128C132.231 59.264 132.167 59.368 132.039 59.44C131.919 59.512 131.799 59.548 131.679 59.548H130.827C130.611 59.548 130.435 59.532 130.299 59.5C130.171 59.468 130.055 59.416 129.951 59.344ZM136.383 58.36V61.6H138.015C138.111 61.6 138.207 61.648 138.303 61.744C138.407 61.832 138.459 61.94 138.459 62.068C138.459 62.188 138.411 62.296 138.315 62.392C138.219 62.48 138.127 62.524 138.039 62.524H136.383V67.06C136.383 67.46 136.295 67.764 136.119 67.972C135.943 68.18 135.711 68.284 135.423 68.284H135.099V59.08C135.099 58.84 135.063 58.688 134.991 58.624C134.927 58.552 134.799 58.496 134.607 58.456C134.391 58.432 134.235 58.388 134.139 58.324C134.051 58.26 134.007 58.18 134.007 58.084C134.007 57.972 134.059 57.884 134.163 57.82C134.275 57.756 134.391 57.724 134.511 57.724H135.783C135.927 57.724 136.063 57.792 136.191 57.928C136.319 58.064 136.383 58.208 136.383 58.36Z" fill="#3E3E47"/>
<path d="M131.956 115.692L131.812 118.188C131.86 118.156 131.996 118.1 132.22 118.02C132.444 117.932 132.7 117.884 132.988 117.876C133.38 117.868 133.74 117.928 134.068 118.056C134.404 118.176 134.692 118.356 134.932 118.596C135.172 118.828 135.356 119.108 135.484 119.436C135.62 119.764 135.688 120.12 135.688 120.504C135.688 120.976 135.6 121.392 135.424 121.752C135.248 122.104 135.012 122.4 134.716 122.64C134.42 122.88 134.084 123.06 133.708 123.18C133.332 123.308 132.94 123.372 132.532 123.372C132.076 123.372 131.672 123.332 131.32 123.252C130.976 123.172 130.672 123.04 130.408 122.856V121.92C130.696 122.112 131.028 122.248 131.404 122.328C131.788 122.408 132.128 122.448 132.424 122.448C133.048 122.448 133.528 122.26 133.864 121.884C134.208 121.5 134.38 121.02 134.38 120.444C134.38 119.996 134.244 119.604 133.972 119.268C133.708 118.924 133.36 118.752 132.928 118.752C132.664 118.752 132.404 118.812 132.148 118.932C131.892 119.052 131.692 119.22 131.548 119.436H130.624L130.852 114.768H135.112V115.692H131.956Z" fill="#3E3E47"/>
<path d="M129.592 156.252V149.976C129.592 149.624 129.552 149.384 129.472 149.256C129.4 149.12 129.2 149.112 128.872 149.232C128.808 149.256 128.748 149.28 128.692 149.304C128.636 149.32 128.608 149.328 128.608 149.328C128.512 149.36 128.424 149.356 128.344 149.316C128.272 149.268 128.22 149.208 128.188 149.136C128.148 149.064 128.136 148.988 128.152 148.908C128.176 148.828 128.24 148.764 128.344 148.716L130.24 147.648H130.828V156.252H129.592ZM133.372 156.252V155.592C133.404 155.56 133.44 155.528 133.48 155.496C133.52 155.456 133.56 155.416 133.6 155.376C133.648 155.336 133.692 155.292 133.732 155.244C133.78 155.196 133.836 155.144 133.9 155.088C134.06 154.936 134.244 154.744 134.452 154.512C134.668 154.272 134.888 154.012 135.112 153.732C135.336 153.46 135.556 153.18 135.772 152.892C135.988 152.604 136.18 152.324 136.348 152.052C136.54 151.74 136.708 151.404 136.852 151.044C136.996 150.676 137.068 150.292 137.068 149.892C137.068 149.508 136.956 149.188 136.732 148.932C136.508 148.668 136.14 148.536 135.628 148.536C135.404 148.536 135.208 148.58 135.04 148.668C134.872 148.748 134.732 148.852 134.62 148.98C134.5 149.1 134.408 149.236 134.344 149.388C134.28 149.54 134.244 149.684 134.236 149.82H133.204C133.212 149.572 133.268 149.32 133.372 149.064C133.476 148.8 133.632 148.564 133.84 148.356C134.04 148.148 134.296 147.98 134.608 147.852C134.928 147.716 135.304 147.648 135.736 147.648C136.576 147.648 137.224 147.872 137.68 148.32C138.144 148.768 138.376 149.392 138.376 150.192C138.376 150.504 138.292 150.856 138.124 151.248C137.964 151.64 137.76 152.004 137.512 152.34C137.288 152.644 137.036 152.96 136.756 153.288C136.484 153.616 136.22 153.928 135.964 154.224C135.7 154.512 135.464 154.764 135.256 154.98C135.048 155.196 134.9 155.34 134.812 155.412H136.744C137.088 155.412 137.352 155.36 137.536 155.256C137.72 155.152 137.856 154.884 137.944 154.452C137.96 154.372 138.004 154.316 138.076 154.284C138.148 154.244 138.22 154.228 138.292 154.236C138.372 154.244 138.44 154.272 138.496 154.32C138.56 154.36 138.592 154.412 138.592 154.476L138.472 156.252H133.372Z" fill="#3E3E47"/>
<path d="M129.592 190.252V183.976C129.592 183.624 129.552 183.384 129.472 183.256C129.4 183.12 129.2 183.112 128.872 183.232C128.808 183.256 128.748 183.28 128.692 183.304C128.636 183.32 128.608 183.328 128.608 183.328C128.512 183.36 128.424 183.356 128.344 183.316C128.272 183.268 128.22 183.208 128.188 183.136C128.148 183.064 128.136 182.988 128.152 182.908C128.176 182.828 128.24 182.764 128.344 182.716L130.24 181.648H130.828V190.252H129.592ZM138.628 185.836C138.628 186.252 138.596 186.672 138.532 187.096C138.476 187.512 138.38 187.904 138.244 188.272C138.108 188.648 137.928 188.988 137.704 189.292C137.48 189.596 137.2 189.836 136.864 190.012C136.648 190.132 136.416 190.22 136.168 190.276C135.92 190.332 135.66 190.36 135.388 190.36C135.116 190.36 134.82 190.328 134.5 190.264C134.188 190.208 133.904 190.1 133.648 189.94V189.064C133.936 189.208 134.232 189.312 134.536 189.376C134.848 189.44 135.14 189.468 135.412 189.46C135.532 189.46 135.648 189.448 135.76 189.424C135.872 189.392 135.976 189.352 136.072 189.304C136.424 189.112 136.7 188.832 136.9 188.464C137.1 188.088 137.232 187.684 137.296 187.252C137.304 187.156 137.312 187.06 137.32 186.964C137.328 186.86 137.332 186.764 137.332 186.676C137.34 186.588 137.344 186.516 137.344 186.46C137.344 186.396 137.344 186.36 137.344 186.352C137.304 186.392 137.172 186.484 136.948 186.628C136.732 186.764 136.484 186.852 136.204 186.892C135.9 186.964 135.576 186.972 135.232 186.916C134.888 186.852 134.568 186.716 134.272 186.508C133.984 186.3 133.74 186.016 133.54 185.656C133.348 185.288 133.252 184.828 133.252 184.276C133.252 183.476 133.488 182.84 133.96 182.368C134.432 181.888 135.088 181.648 135.928 181.648C136.512 181.648 136.98 181.78 137.332 182.044C137.684 182.3 137.956 182.628 138.148 183.028C138.34 183.428 138.468 183.876 138.532 184.372C138.596 184.868 138.628 185.356 138.628 185.836ZM137.332 185.26V184.9C137.332 184.668 137.308 184.412 137.26 184.132C137.212 183.844 137.136 183.576 137.032 183.328C136.92 183.072 136.772 182.86 136.588 182.692C136.404 182.524 136.176 182.436 135.904 182.428C135.456 182.428 135.116 182.596 134.884 182.932C134.652 183.26 134.536 183.692 134.536 184.228C134.536 184.756 134.636 185.204 134.836 185.572C135.036 185.932 135.36 186.112 135.808 186.112C136.152 186.112 136.464 186.016 136.744 185.824C137.024 185.632 137.22 185.444 137.332 185.26Z" fill="#3E3E47"/>
<path d="M127.372 222.252V221.592C127.404 221.56 127.44 221.528 127.48 221.496C127.52 221.456 127.56 221.416 127.6 221.376C127.648 221.336 127.692 221.292 127.732 221.244C127.78 221.196 127.836 221.144 127.9 221.088C128.06 220.936 128.244 220.744 128.452 220.512C128.668 220.272 128.888 220.012 129.112 219.732C129.336 219.46 129.556 219.18 129.772 218.892C129.988 218.604 130.18 218.324 130.348 218.052C130.54 217.74 130.708 217.404 130.852 217.044C130.996 216.676 131.068 216.292 131.068 215.892C131.068 215.508 130.956 215.188 130.732 214.932C130.508 214.668 130.14 214.536 129.628 214.536C129.404 214.536 129.208 214.58 129.04 214.668C128.872 214.748 128.732 214.852 128.62 214.98C128.5 215.1 128.408 215.236 128.344 215.388C128.28 215.54 128.244 215.684 128.236 215.82H127.204C127.212 215.572 127.268 215.32 127.372 215.064C127.476 214.8 127.632 214.564 127.84 214.356C128.04 214.148 128.296 213.98 128.608 213.852C128.928 213.716 129.304 213.648 129.736 213.648C130.576 213.648 131.224 213.872 131.68 214.32C132.144 214.768 132.376 215.392 132.376 216.192C132.376 216.504 132.292 216.856 132.124 217.248C131.964 217.64 131.76 218.004 131.512 218.34C131.288 218.644 131.036 218.96 130.756 219.288C130.484 219.616 130.22 219.928 129.964 220.224C129.7 220.512 129.464 220.764 129.256 220.98C129.048 221.196 128.9 221.34 128.812 221.412H130.744C131.088 221.412 131.352 221.36 131.536 221.256C131.72 221.152 131.856 220.884 131.944 220.452C131.96 220.372 132.004 220.316 132.076 220.284C132.148 220.244 132.22 220.228 132.292 220.236C132.372 220.244 132.44 220.272 132.496 220.32C132.56 220.36 132.592 220.412 132.592 220.476L132.472 222.252H127.372ZM138.316 214.092V214.932C137.996 214.772 137.696 214.664 137.416 214.608C137.136 214.552 136.896 214.524 136.696 214.524C136.52 214.524 136.36 214.544 136.216 214.584C136.072 214.624 135.94 214.68 135.82 214.752C135.564 214.912 135.356 215.116 135.196 215.364C135.036 215.612 134.912 215.876 134.824 216.156C134.736 216.428 134.676 216.704 134.644 216.984C134.612 217.264 134.596 217.512 134.596 217.728C134.612 217.712 134.656 217.668 134.728 217.596C134.808 217.516 134.92 217.432 135.064 217.344C135.2 217.264 135.372 217.188 135.58 217.116C135.796 217.044 136.052 217.008 136.348 217.008C137.14 217.008 137.748 217.256 138.172 217.752C138.604 218.24 138.828 218.876 138.844 219.66C138.844 220.46 138.588 221.112 138.076 221.616C137.572 222.12 136.88 222.372 136 222.372C135.384 222.372 134.896 222.236 134.536 221.964C134.176 221.692 133.908 221.348 133.732 220.932C133.548 220.524 133.432 220.076 133.384 219.588C133.336 219.092 133.312 218.628 133.312 218.196C133.312 217.796 133.34 217.388 133.396 216.972C133.46 216.548 133.56 216.144 133.696 215.76C133.84 215.376 134.024 215.032 134.248 214.728C134.48 214.416 134.764 214.172 135.1 213.996C135.3 213.892 135.528 213.808 135.784 213.744C136.048 213.68 136.316 213.648 136.588 213.648C136.876 213.648 137.168 213.684 137.464 213.756C137.768 213.82 138.052 213.932 138.316 214.092ZM134.584 218.88C134.584 219.176 134.6 219.48 134.632 219.792C134.664 220.104 134.732 220.388 134.836 220.644C134.932 220.9 135.076 221.112 135.268 221.28C135.468 221.448 135.736 221.532 136.072 221.532C136.592 221.54 136.968 221.364 137.2 221.004C137.432 220.644 137.548 220.212 137.548 219.708C137.548 219.22 137.444 218.796 137.236 218.436C137.036 218.068 136.708 217.884 136.252 217.884C136.076 217.884 135.904 217.92 135.736 217.992C135.576 218.056 135.424 218.136 135.28 218.232C135.136 218.336 135.004 218.448 134.884 218.568C134.764 218.68 134.664 218.784 134.584 218.88Z" fill="#3E3E47"/>
<path d="M185.922 59.248C185.874 59.4 185.814 59.552 185.742 59.704C185.678 59.856 185.598 60.004 185.502 60.148L188.13 61.624C188.298 61.72 188.402 61.828 188.442 61.948C188.482 62.068 188.502 62.152 188.502 62.2C188.494 62.328 188.45 62.444 188.37 62.548C188.298 62.644 188.214 62.704 188.118 62.728C188.014 62.76 187.906 62.768 187.794 62.752C187.69 62.736 187.586 62.692 187.482 62.62L184.914 60.892C184.698 61.124 184.466 61.344 184.218 61.552C183.97 61.752 183.722 61.936 183.474 62.104C183.226 62.264 182.982 62.404 182.742 62.524C182.51 62.644 182.298 62.728 182.106 62.776C181.97 62.816 181.854 62.82 181.758 62.788C181.662 62.756 181.594 62.708 181.554 62.644C181.514 62.572 181.506 62.496 181.53 62.416C181.562 62.336 181.638 62.268 181.758 62.212C181.974 62.108 182.218 61.948 182.49 61.732C182.77 61.516 183.042 61.272 183.306 61C183.562 60.728 183.79 60.448 183.99 60.16C184.19 59.872 184.326 59.6 184.398 59.344C184.414 59.256 184.402 59.192 184.362 59.152C184.322 59.112 184.21 59.072 184.026 59.032C183.874 59.008 183.774 58.96 183.726 58.888C183.678 58.808 183.658 58.732 183.666 58.66C183.666 58.588 183.706 58.516 183.786 58.444C183.866 58.372 183.966 58.336 184.086 58.336H185.154C185.466 58.336 185.682 58.436 185.802 58.636C185.93 58.828 185.97 59.032 185.922 59.248ZM180.282 63.64H189.834C189.986 63.64 190.098 63.692 190.17 63.796C190.25 63.9 190.29 63.992 190.29 64.072C190.29 64.184 190.246 64.288 190.158 64.384C190.078 64.48 189.97 64.528 189.834 64.528H185.682V67.072C185.682 67.496 185.598 67.808 185.43 68.008C185.262 68.216 185.058 68.32 184.818 68.32H184.458V64.528H180.282C180.154 64.528 180.046 64.48 179.958 64.384C179.878 64.28 179.838 64.176 179.838 64.072C179.838 63.992 179.878 63.9 179.958 63.796C180.046 63.692 180.154 63.64 180.282 63.64Z" fill="#3E3E47"/>
<path d="M187.316 115.092V115.932C186.996 115.772 186.696 115.664 186.416 115.608C186.136 115.552 185.896 115.524 185.696 115.524C185.52 115.524 185.36 115.544 185.216 115.584C185.072 115.624 184.94 115.68 184.82 115.752C184.564 115.912 184.356 116.116 184.196 116.364C184.036 116.612 183.912 116.876 183.824 117.156C183.736 117.428 183.676 117.704 183.644 117.984C183.612 118.264 183.596 118.512 183.596 118.728C183.612 118.712 183.656 118.668 183.728 118.596C183.808 118.516 183.92 118.432 184.064 118.344C184.2 118.264 184.372 118.188 184.58 118.116C184.796 118.044 185.052 118.008 185.348 118.008C186.14 118.008 186.748 118.256 187.172 118.752C187.604 119.24 187.828 119.876 187.844 120.66C187.844 121.46 187.588 122.112 187.076 122.616C186.572 123.12 185.88 123.372 185 123.372C184.384 123.372 183.896 123.236 183.536 122.964C183.176 122.692 182.908 122.348 182.732 121.932C182.548 121.524 182.432 121.076 182.384 120.588C182.336 120.092 182.312 119.628 182.312 119.196C182.312 118.796 182.34 118.388 182.396 117.972C182.46 117.548 182.56 117.144 182.696 116.76C182.84 116.376 183.024 116.032 183.248 115.728C183.48 115.416 183.764 115.172 184.1 114.996C184.3 114.892 184.528 114.808 184.784 114.744C185.048 114.68 185.316 114.648 185.588 114.648C185.876 114.648 186.168 114.684 186.464 114.756C186.768 114.82 187.052 114.932 187.316 115.092ZM183.584 119.88C183.584 120.176 183.6 120.48 183.632 120.792C183.664 121.104 183.732 121.388 183.836 121.644C183.932 121.9 184.076 122.112 184.268 122.28C184.468 122.448 184.736 122.532 185.072 122.532C185.592 122.54 185.968 122.364 186.2 122.004C186.432 121.644 186.548 121.212 186.548 120.708C186.548 120.22 186.444 119.796 186.236 119.436C186.036 119.068 185.708 118.884 185.252 118.884C185.076 118.884 184.904 118.92 184.736 118.992C184.576 119.056 184.424 119.136 184.28 119.232C184.136 119.336 184.004 119.448 183.884 119.568C183.764 119.68 183.664 119.784 183.584 119.88Z" fill="#3E3E47"/>
<path d="M181.592 156.252V149.976C181.592 149.624 181.552 149.384 181.472 149.256C181.4 149.12 181.2 149.112 180.872 149.232C180.808 149.256 180.748 149.28 180.692 149.304C180.636 149.32 180.608 149.328 180.608 149.328C180.512 149.36 180.424 149.356 180.344 149.316C180.272 149.268 180.22 149.208 180.188 149.136C180.148 149.064 180.136 148.988 180.152 148.908C180.176 148.828 180.24 148.764 180.344 148.716L182.24 147.648H182.828V156.252H181.592ZM186.26 149.556H185.396C185.412 149.38 185.468 149.18 185.564 148.956C185.66 148.732 185.804 148.524 185.996 148.332C186.188 148.14 186.432 147.98 186.728 147.852C187.024 147.716 187.384 147.648 187.808 147.648C188.152 147.648 188.484 147.696 188.804 147.792C189.124 147.888 189.404 148.032 189.644 148.224C189.884 148.416 190.076 148.656 190.22 148.944C190.364 149.224 190.436 149.548 190.436 149.916C190.436 150.188 190.388 150.436 190.292 150.66C190.196 150.876 190.08 151.064 189.944 151.224C189.808 151.392 189.664 151.524 189.512 151.62C189.36 151.716 189.224 151.776 189.104 151.8C189.232 151.84 189.38 151.908 189.548 152.004C189.716 152.1 189.872 152.232 190.016 152.4C190.16 152.568 190.284 152.776 190.388 153.024C190.492 153.272 190.544 153.564 190.544 153.9C190.544 154.308 190.456 154.668 190.28 154.98C190.104 155.292 189.868 155.548 189.572 155.748C189.276 155.956 188.932 156.112 188.54 156.216C188.148 156.32 187.74 156.372 187.316 156.372C186.932 156.372 186.552 156.32 186.176 156.216C185.808 156.12 185.524 155.992 185.324 155.832V154.884C185.556 155.068 185.852 155.212 186.212 155.316C186.58 155.42 186.896 155.472 187.16 155.472C187.392 155.472 187.628 155.448 187.868 155.4C188.116 155.352 188.336 155.264 188.528 155.136C188.728 155 188.892 154.82 189.02 154.596C189.148 154.372 189.212 154.08 189.212 153.72C189.212 153.312 189.108 152.98 188.9 152.724C188.692 152.468 188.444 152.316 188.156 152.268C188.06 152.252 187.924 152.24 187.748 152.232C187.58 152.216 187.496 152.208 187.496 152.208C187.376 152.208 187.284 152.168 187.22 152.088C187.164 152 187.136 151.904 187.136 151.8C187.136 151.696 187.164 151.6 187.22 151.512C187.284 151.424 187.376 151.38 187.496 151.38C187.496 151.38 187.556 151.38 187.676 151.38C187.796 151.372 187.908 151.36 188.012 151.344C188.124 151.328 188.244 151.296 188.372 151.248C188.508 151.2 188.632 151.124 188.744 151.02C188.848 150.916 188.936 150.78 189.008 150.612C189.088 150.436 189.128 150.208 189.128 149.928C189.128 149.448 188.992 149.088 188.72 148.848C188.448 148.608 188.084 148.488 187.628 148.488C187.276 148.488 186.976 148.6 186.728 148.824C186.488 149.04 186.332 149.284 186.26 149.556Z" fill="#3E3E47"/>
<path d="M179.372 190.252V189.592C179.404 189.56 179.44 189.528 179.48 189.496C179.52 189.456 179.56 189.416 179.6 189.376C179.648 189.336 179.692 189.292 179.732 189.244C179.78 189.196 179.836 189.144 179.9 189.088C180.06 188.936 180.244 188.744 180.452 188.512C180.668 188.272 180.888 188.012 181.112 187.732C181.336 187.46 181.556 187.18 181.772 186.892C181.988 186.604 182.18 186.324 182.348 186.052C182.54 185.74 182.708 185.404 182.852 185.044C182.996 184.676 183.068 184.292 183.068 183.892C183.068 183.508 182.956 183.188 182.732 182.932C182.508 182.668 182.14 182.536 181.628 182.536C181.404 182.536 181.208 182.58 181.04 182.668C180.872 182.748 180.732 182.852 180.62 182.98C180.5 183.1 180.408 183.236 180.344 183.388C180.28 183.54 180.244 183.684 180.236 183.82H179.204C179.212 183.572 179.268 183.32 179.372 183.064C179.476 182.8 179.632 182.564 179.84 182.356C180.04 182.148 180.296 181.98 180.608 181.852C180.928 181.716 181.304 181.648 181.736 181.648C182.576 181.648 183.224 181.872 183.68 182.32C184.144 182.768 184.376 183.392 184.376 184.192C184.376 184.504 184.292 184.856 184.124 185.248C183.964 185.64 183.76 186.004 183.512 186.34C183.288 186.644 183.036 186.96 182.756 187.288C182.484 187.616 182.22 187.928 181.964 188.224C181.7 188.512 181.464 188.764 181.256 188.98C181.048 189.196 180.9 189.34 180.812 189.412H182.744C183.088 189.412 183.352 189.36 183.536 189.256C183.72 189.152 183.856 188.884 183.944 188.452C183.96 188.372 184.004 188.316 184.076 188.284C184.148 188.244 184.22 188.228 184.292 188.236C184.372 188.244 184.44 188.272 184.496 188.32C184.56 188.36 184.592 188.412 184.592 188.476L184.472 190.252H179.372ZM188 190.372C187.504 190.372 187.08 190.256 186.728 190.024C186.376 189.792 186.092 189.476 185.876 189.076C185.652 188.676 185.488 188.208 185.384 187.672C185.288 187.136 185.24 186.568 185.24 185.968C185.24 185.464 185.284 184.956 185.372 184.444C185.468 183.924 185.624 183.46 185.84 183.052C186.048 182.636 186.328 182.3 186.68 182.044C187.032 181.78 187.468 181.648 187.988 181.648C188.492 181.648 188.92 181.776 189.272 182.032C189.632 182.288 189.92 182.62 190.136 183.028C190.36 183.436 190.52 183.9 190.616 184.42C190.72 184.932 190.772 185.448 190.772 185.968C190.772 186.504 190.72 187.036 190.616 187.564C190.52 188.084 190.364 188.552 190.148 188.968C189.924 189.392 189.636 189.732 189.284 189.988C188.932 190.244 188.504 190.372 188 190.372ZM186.524 185.968C186.524 186.376 186.544 186.792 186.584 187.216C186.632 187.632 186.712 188.012 186.824 188.356C186.936 188.7 187.088 188.98 187.28 189.196C187.472 189.412 187.716 189.52 188.012 189.52C188.308 189.52 188.552 189.408 188.744 189.184C188.936 188.952 189.088 188.66 189.2 188.308C189.312 187.964 189.388 187.584 189.428 187.168C189.476 186.744 189.5 186.344 189.5 185.968C189.5 185.528 189.472 185.1 189.416 184.684C189.36 184.268 189.272 183.896 189.152 183.568C189.032 183.24 188.876 182.976 188.684 182.776C188.492 182.576 188.26 182.476 187.988 182.476C187.692 182.476 187.448 182.58 187.256 182.788C187.064 182.988 186.916 183.252 186.812 183.58C186.7 183.908 186.624 184.28 186.584 184.696C186.544 185.112 186.524 185.536 186.524 185.968Z" fill="#3E3E47"/>
<path d="M179.372 222.252V221.592C179.404 221.56 179.44 221.528 179.48 221.496C179.52 221.456 179.56 221.416 179.6 221.376C179.648 221.336 179.692 221.292 179.732 221.244C179.78 221.196 179.836 221.144 179.9 221.088C180.06 220.936 180.244 220.744 180.452 220.512C180.668 220.272 180.888 220.012 181.112 219.732C181.336 219.46 181.556 219.18 181.772 218.892C181.988 218.604 182.18 218.324 182.348 218.052C182.54 217.74 182.708 217.404 182.852 217.044C182.996 216.676 183.068 216.292 183.068 215.892C183.068 215.508 182.956 215.188 182.732 214.932C182.508 214.668 182.14 214.536 181.628 214.536C181.404 214.536 181.208 214.58 181.04 214.668C180.872 214.748 180.732 214.852 180.62 214.98C180.5 215.1 180.408 215.236 180.344 215.388C180.28 215.54 180.244 215.684 180.236 215.82H179.204C179.212 215.572 179.268 215.32 179.372 215.064C179.476 214.8 179.632 214.564 179.84 214.356C180.04 214.148 180.296 213.98 180.608 213.852C180.928 213.716 181.304 213.648 181.736 213.648C182.576 213.648 183.224 213.872 183.68 214.32C184.144 214.768 184.376 215.392 184.376 216.192C184.376 216.504 184.292 216.856 184.124 217.248C183.964 217.64 183.76 218.004 183.512 218.34C183.288 218.644 183.036 218.96 182.756 219.288C182.484 219.616 182.22 219.928 181.964 220.224C181.7 220.512 181.464 220.764 181.256 220.98C181.048 221.196 180.9 221.34 180.812 221.412H182.744C183.088 221.412 183.352 221.36 183.536 221.256C183.72 221.152 183.856 220.884 183.944 220.452C183.96 220.372 184.004 220.316 184.076 220.284C184.148 220.244 184.22 220.228 184.292 220.236C184.372 220.244 184.44 220.272 184.496 220.32C184.56 220.36 184.592 220.412 184.592 220.476L184.472 222.252H179.372ZM186.5 222.252L189.32 214.608H186.848C186.72 214.608 186.604 214.64 186.5 214.704C186.404 214.768 186.308 214.88 186.212 215.04C186.18 215.112 186.144 215.216 186.104 215.352C186.072 215.488 186.056 215.556 186.056 215.556C186.032 215.668 185.98 215.748 185.9 215.796C185.828 215.844 185.752 215.864 185.672 215.856C185.584 215.848 185.504 215.816 185.432 215.76C185.368 215.704 185.336 215.628 185.336 215.532L185.396 213.768H190.7V214.38L187.76 222.252H186.5Z" fill="#3E3E47"/>
<path d="M238.582 59.26H235.558V60.964C235.558 61.012 235.554 61.052 235.546 61.084C235.546 61.116 235.546 61.156 235.546 61.204H238.582V59.26ZM239.734 62.092H237.682V63.064H241.834C241.978 63.064 242.09 63.116 242.17 63.22C242.25 63.324 242.29 63.42 242.29 63.508C242.29 63.604 242.246 63.704 242.158 63.808C242.078 63.904 241.97 63.952 241.834 63.952H232.282C232.154 63.952 232.046 63.9 231.958 63.796C231.878 63.692 231.838 63.592 231.838 63.496C231.838 63.4 231.878 63.304 231.958 63.208C232.046 63.112 232.154 63.064 232.282 63.064H236.458V62.092H235.282C235.258 62.164 235.198 62.24 235.102 62.32C235.006 62.4 234.898 62.44 234.778 62.44H234.286V59.668C234.286 59.46 234.266 59.316 234.226 59.236C234.186 59.156 234.098 59.092 233.962 59.044C233.85 59.02 233.762 58.98 233.698 58.924C233.642 58.868 233.614 58.788 233.614 58.684C233.614 58.556 233.666 58.468 233.77 58.42C233.874 58.372 233.978 58.348 234.082 58.348H239.398C239.542 58.348 239.654 58.412 239.734 58.54C239.814 58.668 239.854 58.78 239.854 58.876V60.436C239.854 60.612 239.834 60.772 239.794 60.916C239.762 61.06 239.734 61.16 239.71 61.216H239.77C239.826 61.216 239.894 61.256 239.974 61.336C240.054 61.408 240.094 61.512 240.094 61.648C240.094 61.784 240.058 61.892 239.986 61.972C239.914 62.052 239.83 62.092 239.734 62.092ZM239.962 65.644V67.744C239.962 68.12 239.87 68.416 239.686 68.632C239.51 68.848 239.298 68.956 239.05 68.956H238.69V65.944H234.13C234.034 65.944 233.942 65.904 233.854 65.824C233.766 65.744 233.722 65.632 233.722 65.488C233.722 65.368 233.762 65.264 233.842 65.176C233.93 65.08 234.026 65.032 234.13 65.032H239.302C239.51 65.032 239.67 65.092 239.782 65.212C239.902 65.332 239.962 65.476 239.962 65.644Z" fill="#3E3E47"/>
<path d="M235.5 123.252L238.32 115.608H235.848C235.72 115.608 235.604 115.64 235.5 115.704C235.404 115.768 235.308 115.88 235.212 116.04C235.18 116.112 235.144 116.216 235.104 116.352C235.072 116.488 235.056 116.556 235.056 116.556C235.032 116.668 234.98 116.748 234.9 116.796C234.828 116.844 234.752 116.864 234.672 116.856C234.584 116.848 234.504 116.816 234.432 116.76C234.368 116.704 234.336 116.628 234.336 116.532L234.396 114.768H239.7V115.38L236.76 123.252H235.5Z" fill="#3E3E47"/>
<path d="M233.592 156.252V149.976C233.592 149.624 233.552 149.384 233.472 149.256C233.4 149.12 233.2 149.112 232.872 149.232C232.808 149.256 232.748 149.28 232.692 149.304C232.636 149.32 232.608 149.328 232.608 149.328C232.512 149.36 232.424 149.356 232.344 149.316C232.272 149.268 232.22 149.208 232.188 149.136C232.148 149.064 232.136 148.988 232.152 148.908C232.176 148.828 232.24 148.764 232.344 148.716L234.24 147.648H234.828V156.252H233.592ZM240.564 156.252V153.984H237.096V153.18L240.576 147.648H241.764V153.06H242.916V153.984H241.764V156.252H240.564ZM240.564 149.448L238.32 153.06H240.564V149.448Z" fill="#3E3E47"/>
<path d="M231.372 190.252V189.592C231.404 189.56 231.44 189.528 231.48 189.496C231.52 189.456 231.56 189.416 231.6 189.376C231.648 189.336 231.692 189.292 231.732 189.244C231.78 189.196 231.836 189.144 231.9 189.088C232.06 188.936 232.244 188.744 232.452 188.512C232.668 188.272 232.888 188.012 233.112 187.732C233.336 187.46 233.556 187.18 233.772 186.892C233.988 186.604 234.18 186.324 234.348 186.052C234.54 185.74 234.708 185.404 234.852 185.044C234.996 184.676 235.068 184.292 235.068 183.892C235.068 183.508 234.956 183.188 234.732 182.932C234.508 182.668 234.14 182.536 233.628 182.536C233.404 182.536 233.208 182.58 233.04 182.668C232.872 182.748 232.732 182.852 232.62 182.98C232.5 183.1 232.408 183.236 232.344 183.388C232.28 183.54 232.244 183.684 232.236 183.82H231.204C231.212 183.572 231.268 183.32 231.372 183.064C231.476 182.8 231.632 182.564 231.84 182.356C232.04 182.148 232.296 181.98 232.608 181.852C232.928 181.716 233.304 181.648 233.736 181.648C234.576 181.648 235.224 181.872 235.68 182.32C236.144 182.768 236.376 183.392 236.376 184.192C236.376 184.504 236.292 184.856 236.124 185.248C235.964 185.64 235.76 186.004 235.512 186.34C235.288 186.644 235.036 186.96 234.756 187.288C234.484 187.616 234.22 187.928 233.964 188.224C233.7 188.512 233.464 188.764 233.256 188.98C233.048 189.196 232.9 189.34 232.812 189.412H234.744C235.088 189.412 235.352 189.36 235.536 189.256C235.72 189.152 235.856 188.884 235.944 188.452C235.96 188.372 236.004 188.316 236.076 188.284C236.148 188.244 236.22 188.228 236.292 188.236C236.372 188.244 236.44 188.272 236.496 188.32C236.56 188.36 236.592 188.412 236.592 188.476L236.472 190.252H231.372ZM239.592 190.252V183.976C239.592 183.624 239.552 183.384 239.472 183.256C239.4 183.12 239.2 183.112 238.872 183.232C238.808 183.256 238.748 183.28 238.692 183.304C238.636 183.32 238.608 183.328 238.608 183.328C238.512 183.36 238.424 183.356 238.344 183.316C238.272 183.268 238.22 183.208 238.188 183.136C238.148 183.064 238.136 182.988 238.152 182.908C238.176 182.828 238.24 182.764 238.344 182.716L240.24 181.648H240.828V190.252H239.592Z" fill="#3E3E47"/>
<path d="M231.372 222.252V221.592C231.404 221.56 231.44 221.528 231.48 221.496C231.52 221.456 231.56 221.416 231.6 221.376C231.648 221.336 231.692 221.292 231.732 221.244C231.78 221.196 231.836 221.144 231.9 221.088C232.06 220.936 232.244 220.744 232.452 220.512C232.668 220.272 232.888 220.012 233.112 219.732C233.336 219.46 233.556 219.18 233.772 218.892C233.988 218.604 234.18 218.324 234.348 218.052C234.54 217.74 234.708 217.404 234.852 217.044C234.996 216.676 235.068 216.292 235.068 215.892C235.068 215.508 234.956 215.188 234.732 214.932C234.508 214.668 234.14 214.536 233.628 214.536C233.404 214.536 233.208 214.58 233.04 214.668C232.872 214.748 232.732 214.852 232.62 214.98C232.5 215.1 232.408 215.236 232.344 215.388C232.28 215.54 232.244 215.684 232.236 215.82H231.204C231.212 215.572 231.268 215.32 231.372 215.064C231.476 214.8 231.632 214.564 231.84 214.356C232.04 214.148 232.296 213.98 232.608 213.852C232.928 213.716 233.304 213.648 233.736 213.648C234.576 213.648 235.224 213.872 235.68 214.32C236.144 214.768 236.376 215.392 236.376 216.192C236.376 216.504 236.292 216.856 236.124 217.248C235.964 217.64 235.76 218.004 235.512 218.34C235.288 218.644 235.036 218.96 234.756 219.288C234.484 219.616 234.22 219.928 233.964 220.224C233.7 220.512 233.464 220.764 233.256 220.98C233.048 221.196 232.9 221.34 232.812 221.412H234.744C235.088 221.412 235.352 221.36 235.536 221.256C235.72 221.152 235.856 220.884 235.944 220.452C235.96 220.372 236.004 220.316 236.076 220.284C236.148 220.244 236.22 220.228 236.292 220.236C236.372 220.244 236.44 220.272 236.496 220.32C236.56 220.36 236.592 220.412 236.592 220.476L236.472 222.252H231.372ZM239.976 222.372C239.544 222.372 239.16 222.312 238.824 222.192C238.488 222.072 238.2 221.904 237.96 221.688C237.728 221.472 237.552 221.216 237.432 220.92C237.312 220.624 237.252 220.304 237.252 219.96C237.252 219.64 237.296 219.352 237.384 219.096C237.48 218.832 237.6 218.604 237.744 218.412C237.888 218.228 238.044 218.08 238.212 217.968C238.388 217.856 238.552 217.78 238.704 217.74C238.592 217.708 238.464 217.652 238.32 217.572C238.176 217.484 238.036 217.36 237.9 217.2C237.772 217.048 237.66 216.86 237.564 216.636C237.476 216.404 237.432 216.124 237.432 215.796C237.432 215.5 237.492 215.22 237.612 214.956C237.732 214.692 237.9 214.464 238.116 214.272C238.34 214.08 238.608 213.928 238.92 213.816C239.232 213.704 239.58 213.648 239.964 213.648C240.324 213.648 240.656 213.696 240.96 213.792C241.272 213.888 241.544 214.028 241.776 214.212C242.008 214.404 242.188 214.636 242.316 214.908C242.452 215.18 242.52 215.496 242.52 215.856C242.52 216.136 242.476 216.384 242.388 216.6C242.3 216.816 242.188 217.004 242.052 217.164C241.924 217.324 241.784 217.456 241.632 217.56C241.488 217.656 241.356 217.72 241.236 217.752C241.364 217.784 241.516 217.848 241.692 217.944C241.868 218.032 242.032 218.16 242.184 218.328C242.336 218.504 242.464 218.72 242.568 218.976C242.68 219.224 242.736 219.524 242.736 219.876C242.736 220.612 242.484 221.212 241.98 221.676C241.484 222.14 240.816 222.372 239.976 222.372ZM238.668 215.844C238.668 216.036 238.692 216.224 238.74 216.408C238.788 216.592 238.868 216.756 238.98 216.9C239.084 217.044 239.216 217.16 239.376 217.248C239.544 217.336 239.74 217.38 239.964 217.38C240.388 217.38 240.708 217.256 240.924 217.008C241.148 216.76 241.26 216.372 241.26 215.844C241.26 215.412 241.148 215.064 240.924 214.8C240.708 214.536 240.388 214.404 239.964 214.404C239.548 214.404 239.228 214.532 239.004 214.788C238.78 215.036 238.668 215.388 238.668 215.844ZM238.548 219.9C238.548 220.404 238.664 220.812 238.896 221.124C239.128 221.428 239.484 221.58 239.964 221.58C240.38 221.58 240.732 221.44 241.02 221.16C241.308 220.872 241.452 220.448 241.452 219.888C241.452 219.328 241.316 218.896 241.044 218.592C240.78 218.288 240.42 218.136 239.964 218.136C239.508 218.136 239.156 218.296 238.908 218.616C238.668 218.928 238.548 219.356 238.548 219.9Z" fill="#3E3E47"/>
<path d="M290.962 59.008C290.962 59.6 290.93 60.168 290.866 60.712C290.802 61.248 290.698 61.764 290.554 62.26H292.834C292.986 62.26 293.098 62.312 293.17 62.416C293.242 62.52 293.278 62.612 293.278 62.692C293.278 62.788 293.238 62.884 293.158 62.98C293.078 63.076 292.97 63.124 292.834 63.124H283.282C283.154 63.124 283.046 63.076 282.958 62.98C282.878 62.876 282.838 62.776 282.838 62.68C282.838 62.608 282.878 62.52 282.958 62.416C283.046 62.312 283.154 62.26 283.282 62.26H289.498C289.546 62.012 289.578 61.768 289.594 61.528C289.618 61.28 289.634 61.032 289.642 60.784C289.642 60.536 289.642 60.284 289.642 60.028C289.642 59.772 289.642 59.504 289.642 59.224H285.226C285.122 59.224 285.03 59.176 284.95 59.08C284.87 58.984 284.83 58.884 284.83 58.78C284.83 58.684 284.87 58.588 284.95 58.492C285.038 58.396 285.142 58.348 285.262 58.348H290.374C290.582 58.348 290.73 58.424 290.818 58.576C290.914 58.72 290.962 58.864 290.962 59.008ZM289.702 65.56H286.63V67.84H289.702V65.56ZM290.866 68.764H286.354C286.33 68.812 286.266 68.876 286.162 68.956C286.066 69.036 285.962 69.076 285.85 69.076H285.358V65.968C285.358 65.728 285.334 65.58 285.286 65.524C285.246 65.468 285.166 65.424 285.046 65.392C284.926 65.368 284.834 65.332 284.77 65.284C284.706 65.228 284.674 65.14 284.674 65.02C284.674 64.892 284.73 64.804 284.842 64.756C284.954 64.708 285.062 64.684 285.166 64.684H290.506C290.658 64.684 290.774 64.744 290.854 64.864C290.934 64.984 290.974 65.1 290.974 65.212V67.072C290.974 67.264 290.962 67.428 290.938 67.564C290.922 67.7 290.902 67.796 290.878 67.852H290.902C290.982 67.852 291.054 67.908 291.118 68.02C291.182 68.132 291.214 68.232 291.214 68.32C291.214 68.408 291.178 68.504 291.106 68.608C291.042 68.712 290.962 68.764 290.866 68.764Z" fill="#3E3E47"/>
<path d="M287.592 90.252V83.976C287.592 83.624 287.552 83.384 287.472 83.256C287.4 83.12 287.2 83.112 286.872 83.232C286.808 83.256 286.748 83.28 286.692 83.304C286.636 83.32 286.608 83.328 286.608 83.328C286.512 83.36 286.424 83.356 286.344 83.316C286.272 83.268 286.22 83.208 286.188 83.136C286.148 83.064 286.136 82.988 286.152 82.908C286.176 82.828 286.24 82.764 286.344 82.716L288.24 81.648H288.828V90.252H287.592Z" fill="#3E3E47"/>
<path d="M287.976 123.372C287.544 123.372 287.16 123.312 286.824 123.192C286.488 123.072 286.2 122.904 285.96 122.688C285.728 122.472 285.552 122.216 285.432 121.92C285.312 121.624 285.252 121.304 285.252 120.96C285.252 120.64 285.296 120.352 285.384 120.096C285.48 119.832 285.6 119.604 285.744 119.412C285.888 119.228 286.044 119.08 286.212 118.968C286.388 118.856 286.552 118.78 286.704 118.74C286.592 118.708 286.464 118.652 286.32 118.572C286.176 118.484 286.036 118.36 285.9 118.2C285.772 118.048 285.66 117.86 285.564 117.636C285.476 117.404 285.432 117.124 285.432 116.796C285.432 116.5 285.492 116.22 285.612 115.956C285.732 115.692 285.9 115.464 286.116 115.272C286.34 115.08 286.608 114.928 286.92 114.816C287.232 114.704 287.58 114.648 287.964 114.648C288.324 114.648 288.656 114.696 288.96 114.792C289.272 114.888 289.544 115.028 289.776 115.212C290.008 115.404 290.188 115.636 290.316 115.908C290.452 116.18 290.52 116.496 290.52 116.856C290.52 117.136 290.476 117.384 290.388 117.6C290.3 117.816 290.188 118.004 290.052 118.164C289.924 118.324 289.784 118.456 289.632 118.56C289.488 118.656 289.356 118.72 289.236 118.752C289.364 118.784 289.516 118.848 289.692 118.944C289.868 119.032 290.032 119.16 290.184 119.328C290.336 119.504 290.464 119.72 290.568 119.976C290.68 120.224 290.736 120.524 290.736 120.876C290.736 121.612 290.484 122.212 289.98 122.676C289.484 123.14 288.816 123.372 287.976 123.372ZM286.668 116.844C286.668 117.036 286.692 117.224 286.74 117.408C286.788 117.592 286.868 117.756 286.98 117.9C287.084 118.044 287.216 118.16 287.376 118.248C287.544 118.336 287.74 118.38 287.964 118.38C288.388 118.38 288.708 118.256 288.924 118.008C289.148 117.76 289.26 117.372 289.26 116.844C289.26 116.412 289.148 116.064 288.924 115.8C288.708 115.536 288.388 115.404 287.964 115.404C287.548 115.404 287.228 115.532 287.004 115.788C286.78 116.036 286.668 116.388 286.668 116.844ZM286.548 120.9C286.548 121.404 286.664 121.812 286.896 122.124C287.128 122.428 287.484 122.58 287.964 122.58C288.38 122.58 288.732 122.44 289.02 122.16C289.308 121.872 289.452 121.448 289.452 120.888C289.452 120.328 289.316 119.896 289.044 119.592C288.78 119.288 288.42 119.136 287.964 119.136C287.508 119.136 287.156 119.296 286.908 119.616C286.668 119.928 286.548 120.356 286.548 120.9Z" fill="#3E3E47"/>
<path d="M284.592 156.252V149.976C284.592 149.624 284.552 149.384 284.472 149.256C284.4 149.12 284.2 149.112 283.872 149.232C283.808 149.256 283.748 149.28 283.692 149.304C283.636 149.32 283.608 149.328 283.608 149.328C283.512 149.36 283.424 149.356 283.344 149.316C283.272 149.268 283.22 149.208 283.188 149.136C283.148 149.064 283.136 148.988 283.152 148.908C283.176 148.828 283.24 148.764 283.344 148.716L285.24 147.648H285.828V156.252H284.592ZM289.956 148.692L289.812 151.188C289.86 151.156 289.996 151.1 290.22 151.02C290.444 150.932 290.7 150.884 290.988 150.876C291.38 150.868 291.74 150.928 292.068 151.056C292.404 151.176 292.692 151.356 292.932 151.596C293.172 151.828 293.356 152.108 293.484 152.436C293.62 152.764 293.688 153.12 293.688 153.504C293.688 153.976 293.6 154.392 293.424 154.752C293.248 155.104 293.012 155.4 292.716 155.64C292.42 155.88 292.084 156.06 291.708 156.18C291.332 156.308 290.94 156.372 290.532 156.372C290.076 156.372 289.672 156.332 289.32 156.252C288.976 156.172 288.672 156.04 288.408 155.856V154.92C288.696 155.112 289.028 155.248 289.404 155.328C289.788 155.408 290.128 155.448 290.424 155.448C291.048 155.448 291.528 155.26 291.864 154.884C292.208 154.5 292.38 154.02 292.38 153.444C292.38 152.996 292.244 152.604 291.972 152.268C291.708 151.924 291.36 151.752 290.928 151.752C290.664 151.752 290.404 151.812 290.148 151.932C289.892 152.052 289.692 152.22 289.548 152.436H288.624L288.852 147.768H293.112V148.692H289.956Z" fill="#3E3E47"/>
<path d="M282.372 190.252V189.592C282.404 189.56 282.44 189.528 282.48 189.496C282.52 189.456 282.56 189.416 282.6 189.376C282.648 189.336 282.692 189.292 282.732 189.244C282.78 189.196 282.836 189.144 282.9 189.088C283.06 188.936 283.244 188.744 283.452 188.512C283.668 188.272 283.888 188.012 284.112 187.732C284.336 187.46 284.556 187.18 284.772 186.892C284.988 186.604 285.18 186.324 285.348 186.052C285.54 185.74 285.708 185.404 285.852 185.044C285.996 184.676 286.068 184.292 286.068 183.892C286.068 183.508 285.956 183.188 285.732 182.932C285.508 182.668 285.14 182.536 284.628 182.536C284.404 182.536 284.208 182.58 284.04 182.668C283.872 182.748 283.732 182.852 283.62 182.98C283.5 183.1 283.408 183.236 283.344 183.388C283.28 183.54 283.244 183.684 283.236 183.82H282.204C282.212 183.572 282.268 183.32 282.372 183.064C282.476 182.8 282.632 182.564 282.84 182.356C283.04 182.148 283.296 181.98 283.608 181.852C283.928 181.716 284.304 181.648 284.736 181.648C285.576 181.648 286.224 181.872 286.68 182.32C287.144 182.768 287.376 183.392 287.376 184.192C287.376 184.504 287.292 184.856 287.124 185.248C286.964 185.64 286.76 186.004 286.512 186.34C286.288 186.644 286.036 186.96 285.756 187.288C285.484 187.616 285.22 187.928 284.964 188.224C284.7 188.512 284.464 188.764 284.256 188.98C284.048 189.196 283.9 189.34 283.812 189.412H285.744C286.088 189.412 286.352 189.36 286.536 189.256C286.72 189.152 286.856 188.884 286.944 188.452C286.96 188.372 287.004 188.316 287.076 188.284C287.148 188.244 287.22 188.228 287.292 188.236C287.372 188.244 287.44 188.272 287.496 188.32C287.56 188.36 287.592 188.412 287.592 188.476L287.472 190.252H282.372ZM288.372 190.252V189.592C288.404 189.56 288.44 189.528 288.48 189.496C288.52 189.456 288.56 189.416 288.6 189.376C288.648 189.336 288.692 189.292 288.732 189.244C288.78 189.196 288.836 189.144 288.9 189.088C289.06 188.936 289.244 188.744 289.452 188.512C289.668 188.272 289.888 188.012 290.112 187.732C290.336 187.46 290.556 187.18 290.772 186.892C290.988 186.604 291.18 186.324 291.348 186.052C291.54 185.74 291.708 185.404 291.852 185.044C291.996 184.676 292.068 184.292 292.068 183.892C292.068 183.508 291.956 183.188 291.732 182.932C291.508 182.668 291.14 182.536 290.628 182.536C290.404 182.536 290.208 182.58 290.04 182.668C289.872 182.748 289.732 182.852 289.62 182.98C289.5 183.1 289.408 183.236 289.344 183.388C289.28 183.54 289.244 183.684 289.236 183.82H288.204C288.212 183.572 288.268 183.32 288.372 183.064C288.476 182.8 288.632 182.564 288.84 182.356C289.04 182.148 289.296 181.98 289.608 181.852C289.928 181.716 290.304 181.648 290.736 181.648C291.576 181.648 292.224 181.872 292.68 182.32C293.144 182.768 293.376 183.392 293.376 184.192C293.376 184.504 293.292 184.856 293.124 185.248C292.964 185.64 292.76 186.004 292.512 186.34C292.288 186.644 292.036 186.96 291.756 187.288C291.484 187.616 291.22 187.928 290.964 188.224C290.7 188.512 290.464 188.764 290.256 188.98C290.048 189.196 289.9 189.34 289.812 189.412H291.744C292.088 189.412 292.352 189.36 292.536 189.256C292.72 189.152 292.856 188.884 292.944 188.452C292.96 188.372 293.004 188.316 293.076 188.284C293.148 188.244 293.22 188.228 293.292 188.236C293.372 188.244 293.44 188.272 293.496 188.32C293.56 188.36 293.592 188.412 293.592 188.476L293.472 190.252H288.372Z" fill="#3E3E47"/>
<path d="M282.372 222.252V221.592C282.404 221.56 282.44 221.528 282.48 221.496C282.52 221.456 282.56 221.416 282.6 221.376C282.648 221.336 282.692 221.292 282.732 221.244C282.78 221.196 282.836 221.144 282.9 221.088C283.06 220.936 283.244 220.744 283.452 220.512C283.668 220.272 283.888 220.012 284.112 219.732C284.336 219.46 284.556 219.18 284.772 218.892C284.988 218.604 285.18 218.324 285.348 218.052C285.54 217.74 285.708 217.404 285.852 217.044C285.996 216.676 286.068 216.292 286.068 215.892C286.068 215.508 285.956 215.188 285.732 214.932C285.508 214.668 285.14 214.536 284.628 214.536C284.404 214.536 284.208 214.58 284.04 214.668C283.872 214.748 283.732 214.852 283.62 214.98C283.5 215.1 283.408 215.236 283.344 215.388C283.28 215.54 283.244 215.684 283.236 215.82H282.204C282.212 215.572 282.268 215.32 282.372 215.064C282.476 214.8 282.632 214.564 282.84 214.356C283.04 214.148 283.296 213.98 283.608 213.852C283.928 213.716 284.304 213.648 284.736 213.648C285.576 213.648 286.224 213.872 286.68 214.32C287.144 214.768 287.376 215.392 287.376 216.192C287.376 216.504 287.292 216.856 287.124 217.248C286.964 217.64 286.76 218.004 286.512 218.34C286.288 218.644 286.036 218.96 285.756 219.288C285.484 219.616 285.22 219.928 284.964 220.224C284.7 220.512 284.464 220.764 284.256 220.98C284.048 221.196 283.9 221.34 283.812 221.412H285.744C286.088 221.412 286.352 221.36 286.536 221.256C286.72 221.152 286.856 220.884 286.944 220.452C286.96 220.372 287.004 220.316 287.076 220.284C287.148 220.244 287.22 220.228 287.292 220.236C287.372 220.244 287.44 220.272 287.496 220.32C287.56 220.36 287.592 220.412 287.592 220.476L287.472 222.252H282.372ZM293.628 217.836C293.628 218.252 293.596 218.672 293.532 219.096C293.476 219.512 293.38 219.904 293.244 220.272C293.108 220.648 292.928 220.988 292.704 221.292C292.48 221.596 292.2 221.836 291.864 222.012C291.648 222.132 291.416 222.22 291.168 222.276C290.92 222.332 290.66 222.36 290.388 222.36C290.116 222.36 289.82 222.328 289.5 222.264C289.188 222.208 288.904 222.1 288.648 221.94V221.064C288.936 221.208 289.232 221.312 289.536 221.376C289.848 221.44 290.14 221.468 290.412 221.46C290.532 221.46 290.648 221.448 290.76 221.424C290.872 221.392 290.976 221.352 291.072 221.304C291.424 221.112 291.7 220.832 291.9 220.464C292.1 220.088 292.232 219.684 292.296 219.252C292.304 219.156 292.312 219.06 292.32 218.964C292.328 218.86 292.332 218.764 292.332 218.676C292.34 218.588 292.344 218.516 292.344 218.46C292.344 218.396 292.344 218.36 292.344 218.352C292.304 218.392 292.172 218.484 291.948 218.628C291.732 218.764 291.484 218.852 291.204 218.892C290.9 218.964 290.576 218.972 290.232 218.916C289.888 218.852 289.568 218.716 289.272 218.508C288.984 218.3 288.74 218.016 288.54 217.656C288.348 217.288 288.252 216.828 288.252 216.276C288.252 215.476 288.488 214.84 288.96 214.368C289.432 213.888 290.088 213.648 290.928 213.648C291.512 213.648 291.98 213.78 292.332 214.044C292.684 214.3 292.956 214.628 293.148 215.028C293.34 215.428 293.468 215.876 293.532 216.372C293.596 216.868 293.628 217.356 293.628 217.836ZM292.332 217.26V216.9C292.332 216.668 292.308 216.412 292.26 216.132C292.212 215.844 292.136 215.576 292.032 215.328C291.92 215.072 291.772 214.86 291.588 214.692C291.404 214.524 291.176 214.436 290.904 214.428C290.456 214.428 290.116 214.596 289.884 214.932C289.652 215.26 289.536 215.692 289.536 216.228C289.536 216.756 289.636 217.204 289.836 217.572C290.036 217.932 290.36 218.112 290.808 218.112C291.152 218.112 291.464 218.016 291.744 217.824C292.024 217.632 292.22 217.444 292.332 217.26Z" fill="#3E3E47"/>
<path d="M342.422 59.788H338.522V61.18H342.266C342.394 61.18 342.49 61.236 342.554 61.348C342.626 61.452 342.662 61.54 342.662 61.612C342.662 61.692 342.63 61.784 342.566 61.888C342.51 61.992 342.426 62.044 342.314 62.044H338.522V63.1C338.522 63.172 338.546 63.248 338.594 63.328C338.642 63.408 338.726 63.448 338.846 63.448H342.482C342.602 63.448 342.706 63.5 342.794 63.604C342.882 63.708 342.926 63.804 342.926 63.892C342.926 64.012 342.882 64.12 342.794 64.216C342.706 64.312 342.606 64.36 342.494 64.36H340.682V65.812H344.834C344.986 65.812 345.098 65.864 345.17 65.968C345.25 66.072 345.29 66.168 345.29 66.256C345.29 66.376 345.246 66.484 345.158 66.58C345.078 66.668 344.97 66.712 344.834 66.712H335.282C335.154 66.712 335.046 66.664 334.958 66.568C334.878 66.472 334.838 66.364 334.838 66.244C334.838 66.148 334.878 66.052 334.958 65.956C335.046 65.86 335.154 65.812 335.282 65.812H339.458V64.36H338.258C338.17 64.36 338.07 64.344 337.958 64.312C337.846 64.28 337.738 64.224 337.634 64.144C337.53 64.064 337.442 63.964 337.37 63.844C337.298 63.724 337.262 63.572 337.262 63.388V60.34C337.262 60.052 337.246 59.864 337.214 59.776C337.19 59.688 337.106 59.62 336.962 59.572C336.866 59.548 336.774 59.512 336.686 59.464C336.606 59.408 336.566 59.328 336.566 59.224C336.566 59.088 336.618 58.996 336.722 58.948C336.834 58.9 336.938 58.876 337.034 58.876H342.362C342.45 58.876 342.542 58.928 342.638 59.032C342.734 59.128 342.782 59.236 342.782 59.356C342.782 59.452 342.738 59.548 342.65 59.644C342.57 59.74 342.494 59.788 342.422 59.788Z" fill="#0047FF"/>
<path d="M337.372 90.252V89.592C337.404 89.56 337.44 89.528 337.48 89.496C337.52 89.456 337.56 89.416 337.6 89.376C337.648 89.336 337.692 89.292 337.732 89.244C337.78 89.196 337.836 89.144 337.9 89.088C338.06 88.936 338.244 88.744 338.452 88.512C338.668 88.272 338.888 88.012 339.112 87.732C339.336 87.46 339.556 87.18 339.772 86.892C339.988 86.604 340.18 86.324 340.348 86.052C340.54 85.74 340.708 85.404 340.852 85.044C340.996 84.676 341.068 84.292 341.068 83.892C341.068 83.508 340.956 83.188 340.732 82.932C340.508 82.668 340.14 82.536 339.628 82.536C339.404 82.536 339.208 82.58 339.04 82.668C338.872 82.748 338.732 82.852 338.62 82.98C338.5 83.1 338.408 83.236 338.344 83.388C338.28 83.54 338.244 83.684 338.236 83.82H337.204C337.212 83.572 337.268 83.32 337.372 83.064C337.476 82.8 337.632 82.564 337.84 82.356C338.04 82.148 338.296 81.98 338.608 81.852C338.928 81.716 339.304 81.648 339.736 81.648C340.576 81.648 341.224 81.872 341.68 82.32C342.144 82.768 342.376 83.392 342.376 84.192C342.376 84.504 342.292 84.856 342.124 85.248C341.964 85.64 341.76 86.004 341.512 86.34C341.288 86.644 341.036 86.96 340.756 87.288C340.484 87.616 340.22 87.928 339.964 88.224C339.7 88.512 339.464 88.764 339.256 88.98C339.048 89.196 338.9 89.34 338.812 89.412H340.744C341.088 89.412 341.352 89.36 341.536 89.256C341.72 89.152 341.856 88.884 341.944 88.452C341.96 88.372 342.004 88.316 342.076 88.284C342.148 88.244 342.22 88.228 342.292 88.236C342.372 88.244 342.44 88.272 342.496 88.32C342.56 88.36 342.592 88.412 342.592 88.476L342.472 90.252H337.372Z" fill="#0047FF"/>
<path d="M342.628 118.836C342.628 119.252 342.596 119.672 342.532 120.096C342.476 120.512 342.38 120.904 342.244 121.272C342.108 121.648 341.928 121.988 341.704 122.292C341.48 122.596 341.2 122.836 340.864 123.012C340.648 123.132 340.416 123.22 340.168 123.276C339.92 123.332 339.66 123.36 339.388 123.36C339.116 123.36 338.82 123.328 338.5 123.264C338.188 123.208 337.904 123.1 337.648 122.94V122.064C337.936 122.208 338.232 122.312 338.536 122.376C338.848 122.44 339.14 122.468 339.412 122.46C339.532 122.46 339.648 122.448 339.76 122.424C339.872 122.392 339.976 122.352 340.072 122.304C340.424 122.112 340.7 121.832 340.9 121.464C341.1 121.088 341.232 120.684 341.296 120.252C341.304 120.156 341.312 120.06 341.32 119.964C341.328 119.86 341.332 119.764 341.332 119.676C341.34 119.588 341.344 119.516 341.344 119.46C341.344 119.396 341.344 119.36 341.344 119.352C341.304 119.392 341.172 119.484 340.948 119.628C340.732 119.764 340.484 119.852 340.204 119.892C339.9 119.964 339.576 119.972 339.232 119.916C338.888 119.852 338.568 119.716 338.272 119.508C337.984 119.3 337.74 119.016 337.54 118.656C337.348 118.288 337.252 117.828 337.252 117.276C337.252 116.476 337.488 115.84 337.96 115.368C338.432 114.888 339.088 114.648 339.928 114.648C340.512 114.648 340.98 114.78 341.332 115.044C341.684 115.3 341.956 115.628 342.148 116.028C342.34 116.428 342.468 116.876 342.532 117.372C342.596 117.868 342.628 118.356 342.628 118.836ZM341.332 118.26V117.9C341.332 117.668 341.308 117.412 341.26 117.132C341.212 116.844 341.136 116.576 341.032 116.328C340.92 116.072 340.772 115.86 340.588 115.692C340.404 115.524 340.176 115.436 339.904 115.428C339.456 115.428 339.116 115.596 338.884 115.932C338.652 116.26 338.536 116.692 338.536 117.228C338.536 117.756 338.636 118.204 338.836 118.572C339.036 118.932 339.36 119.112 339.808 119.112C340.152 119.112 340.464 119.016 340.744 118.824C341.024 118.632 341.22 118.444 341.332 118.26Z" fill="#0047FF"/>
<path d="M336.592 156.252V149.976C336.592 149.624 336.552 149.384 336.472 149.256C336.4 149.12 336.2 149.112 335.872 149.232C335.808 149.256 335.748 149.28 335.692 149.304C335.636 149.32 335.608 149.328 335.608 149.328C335.512 149.36 335.424 149.356 335.344 149.316C335.272 149.268 335.22 149.208 335.188 149.136C335.148 149.064 335.136 148.988 335.152 148.908C335.176 148.828 335.24 148.764 335.344 148.716L337.24 147.648H337.828V156.252H336.592ZM345.316 148.092V148.932C344.996 148.772 344.696 148.664 344.416 148.608C344.136 148.552 343.896 148.524 343.696 148.524C343.52 148.524 343.36 148.544 343.216 148.584C343.072 148.624 342.94 148.68 342.82 148.752C342.564 148.912 342.356 149.116 342.196 149.364C342.036 149.612 341.912 149.876 341.824 150.156C341.736 150.428 341.676 150.704 341.644 150.984C341.612 151.264 341.596 151.512 341.596 151.728C341.612 151.712 341.656 151.668 341.728 151.596C341.808 151.516 341.92 151.432 342.064 151.344C342.2 151.264 342.372 151.188 342.58 151.116C342.796 151.044 343.052 151.008 343.348 151.008C344.14 151.008 344.748 151.256 345.172 151.752C345.604 152.24 345.828 152.876 345.844 153.66C345.844 154.46 345.588 155.112 345.076 155.616C344.572 156.12 343.88 156.372 343 156.372C342.384 156.372 341.896 156.236 341.536 155.964C341.176 155.692 340.908 155.348 340.732 154.932C340.548 154.524 340.432 154.076 340.384 153.588C340.336 153.092 340.312 152.628 340.312 152.196C340.312 151.796 340.34 151.388 340.396 150.972C340.46 150.548 340.56 150.144 340.696 149.76C340.84 149.376 341.024 149.032 341.248 148.728C341.48 148.416 341.764 148.172 342.1 147.996C342.3 147.892 342.528 147.808 342.784 147.744C343.048 147.68 343.316 147.648 343.588 147.648C343.876 147.648 344.168 147.684 344.464 147.756C344.768 147.82 345.052 147.932 345.316 148.092ZM341.584 152.88C341.584 153.176 341.6 153.48 341.632 153.792C341.664 154.104 341.732 154.388 341.836 154.644C341.932 154.9 342.076 155.112 342.268 155.28C342.468 155.448 342.736 155.532 343.072 155.532C343.592 155.54 343.968 155.364 344.2 155.004C344.432 154.644 344.548 154.212 344.548 153.708C344.548 153.22 344.444 152.796 344.236 152.436C344.036 152.068 343.708 151.884 343.252 151.884C343.076 151.884 342.904 151.92 342.736 151.992C342.576 152.056 342.424 152.136 342.28 152.232C342.136 152.336 342.004 152.448 341.884 152.568C341.764 152.68 341.664 152.784 341.584 152.88Z" fill="#0047FF"/>
<path d="M334.372 190.252V189.592C334.404 189.56 334.44 189.528 334.48 189.496C334.52 189.456 334.56 189.416 334.6 189.376C334.648 189.336 334.692 189.292 334.732 189.244C334.78 189.196 334.836 189.144 334.9 189.088C335.06 188.936 335.244 188.744 335.452 188.512C335.668 188.272 335.888 188.012 336.112 187.732C336.336 187.46 336.556 187.18 336.772 186.892C336.988 186.604 337.18 186.324 337.348 186.052C337.54 185.74 337.708 185.404 337.852 185.044C337.996 184.676 338.068 184.292 338.068 183.892C338.068 183.508 337.956 183.188 337.732 182.932C337.508 182.668 337.14 182.536 336.628 182.536C336.404 182.536 336.208 182.58 336.04 182.668C335.872 182.748 335.732 182.852 335.62 182.98C335.5 183.1 335.408 183.236 335.344 183.388C335.28 183.54 335.244 183.684 335.236 183.82H334.204C334.212 183.572 334.268 183.32 334.372 183.064C334.476 182.8 334.632 182.564 334.84 182.356C335.04 182.148 335.296 181.98 335.608 181.852C335.928 181.716 336.304 181.648 336.736 181.648C337.576 181.648 338.224 181.872 338.68 182.32C339.144 182.768 339.376 183.392 339.376 184.192C339.376 184.504 339.292 184.856 339.124 185.248C338.964 185.64 338.76 186.004 338.512 186.34C338.288 186.644 338.036 186.96 337.756 187.288C337.484 187.616 337.22 187.928 336.964 188.224C336.7 188.512 336.464 188.764 336.256 188.98C336.048 189.196 335.9 189.34 335.812 189.412H337.744C338.088 189.412 338.352 189.36 338.536 189.256C338.72 189.152 338.856 188.884 338.944 188.452C338.96 188.372 339.004 188.316 339.076 188.284C339.148 188.244 339.22 188.228 339.292 188.236C339.372 188.244 339.44 188.272 339.496 188.32C339.56 188.36 339.592 188.412 339.592 188.476L339.472 190.252H334.372ZM341.26 183.556H340.396C340.412 183.38 340.468 183.18 340.564 182.956C340.66 182.732 340.804 182.524 340.996 182.332C341.188 182.14 341.432 181.98 341.728 181.852C342.024 181.716 342.384 181.648 342.808 181.648C343.152 181.648 343.484 181.696 343.804 181.792C344.124 181.888 344.404 182.032 344.644 182.224C344.884 182.416 345.076 182.656 345.22 182.944C345.364 183.224 345.436 183.548 345.436 183.916C345.436 184.188 345.388 184.436 345.292 184.66C345.196 184.876 345.08 185.064 344.944 185.224C344.808 185.392 344.664 185.524 344.512 185.62C344.36 185.716 344.224 185.776 344.104 185.8C344.232 185.84 344.38 185.908 344.548 186.004C344.716 186.1 344.872 186.232 345.016 186.4C345.16 186.568 345.284 186.776 345.388 187.024C345.492 187.272 345.544 187.564 345.544 187.9C345.544 188.308 345.456 188.668 345.28 188.98C345.104 189.292 344.868 189.548 344.572 189.748C344.276 189.956 343.932 190.112 343.54 190.216C343.148 190.32 342.74 190.372 342.316 190.372C341.932 190.372 341.552 190.32 341.176 190.216C340.808 190.12 340.524 189.992 340.324 189.832V188.884C340.556 189.068 340.852 189.212 341.212 189.316C341.58 189.42 341.896 189.472 342.16 189.472C342.392 189.472 342.628 189.448 342.868 189.4C343.116 189.352 343.336 189.264 343.528 189.136C343.728 189 343.892 188.82 344.02 188.596C344.148 188.372 344.212 188.08 344.212 187.72C344.212 187.312 344.108 186.98 343.9 186.724C343.692 186.468 343.444 186.316 343.156 186.268C343.06 186.252 342.924 186.24 342.748 186.232C342.58 186.216 342.496 186.208 342.496 186.208C342.376 186.208 342.284 186.168 342.22 186.088C342.164 186 342.136 185.904 342.136 185.8C342.136 185.696 342.164 185.6 342.22 185.512C342.284 185.424 342.376 185.38 342.496 185.38C342.496 185.38 342.556 185.38 342.676 185.38C342.796 185.372 342.908 185.36 343.012 185.344C343.124 185.328 343.244 185.296 343.372 185.248C343.508 185.2 343.632 185.124 343.744 185.02C343.848 184.916 343.936 184.78 344.008 184.612C344.088 184.436 344.128 184.208 344.128 183.928C344.128 183.448 343.992 183.088 343.72 182.848C343.448 182.608 343.084 182.488 342.628 182.488C342.276 182.488 341.976 182.6 341.728 182.824C341.488 183.04 341.332 183.284 341.26 183.556Z" fill="#0047FF"/>
<path d="M335.26 215.556H334.396C334.412 215.38 334.468 215.18 334.564 214.956C334.66 214.732 334.804 214.524 334.996 214.332C335.188 214.14 335.432 213.98 335.728 213.852C336.024 213.716 336.384 213.648 336.808 213.648C337.152 213.648 337.484 213.696 337.804 213.792C338.124 213.888 338.404 214.032 338.644 214.224C338.884 214.416 339.076 214.656 339.22 214.944C339.364 215.224 339.436 215.548 339.436 215.916C339.436 216.188 339.388 216.436 339.292 216.66C339.196 216.876 339.08 217.064 338.944 217.224C338.808 217.392 338.664 217.524 338.512 217.62C338.36 217.716 338.224 217.776 338.104 217.8C338.232 217.84 338.38 217.908 338.548 218.004C338.716 218.1 338.872 218.232 339.016 218.4C339.16 218.568 339.284 218.776 339.388 219.024C339.492 219.272 339.544 219.564 339.544 219.9C339.544 220.308 339.456 220.668 339.28 220.98C339.104 221.292 338.868 221.548 338.572 221.748C338.276 221.956 337.932 222.112 337.54 222.216C337.148 222.32 336.74 222.372 336.316 222.372C335.932 222.372 335.552 222.32 335.176 222.216C334.808 222.12 334.524 221.992 334.324 221.832V220.884C334.556 221.068 334.852 221.212 335.212 221.316C335.58 221.42 335.896 221.472 336.16 221.472C336.392 221.472 336.628 221.448 336.868 221.4C337.116 221.352 337.336 221.264 337.528 221.136C337.728 221 337.892 220.82 338.02 220.596C338.148 220.372 338.212 220.08 338.212 219.72C338.212 219.312 338.108 218.98 337.9 218.724C337.692 218.468 337.444 218.316 337.156 218.268C337.06 218.252 336.924 218.24 336.748 218.232C336.58 218.216 336.496 218.208 336.496 218.208C336.376 218.208 336.284 218.168 336.22 218.088C336.164 218 336.136 217.904 336.136 217.8C336.136 217.696 336.164 217.6 336.22 217.512C336.284 217.424 336.376 217.38 336.496 217.38C336.496 217.38 336.556 217.38 336.676 217.38C336.796 217.372 336.908 217.36 337.012 217.344C337.124 217.328 337.244 217.296 337.372 217.248C337.508 217.2 337.632 217.124 337.744 217.02C337.848 216.916 337.936 216.78 338.008 216.612C338.088 216.436 338.128 216.208 338.128 215.928C338.128 215.448 337.992 215.088 337.72 214.848C337.448 214.608 337.084 214.488 336.628 214.488C336.276 214.488 335.976 214.6 335.728 214.824C335.488 215.04 335.332 215.284 335.26 215.556ZM343 222.372C342.504 222.372 342.08 222.256 341.728 222.024C341.376 221.792 341.092 221.476 340.876 221.076C340.652 220.676 340.488 220.208 340.384 219.672C340.288 219.136 340.24 218.568 340.24 217.968C340.24 217.464 340.284 216.956 340.372 216.444C340.468 215.924 340.624 215.46 340.84 215.052C341.048 214.636 341.328 214.3 341.68 214.044C342.032 213.78 342.468 213.648 342.988 213.648C343.492 213.648 343.92 213.776 344.272 214.032C344.632 214.288 344.92 214.62 345.136 215.028C345.36 215.436 345.52 215.9 345.616 216.42C345.72 216.932 345.772 217.448 345.772 217.968C345.772 218.504 345.72 219.036 345.616 219.564C345.52 220.084 345.364 220.552 345.148 220.968C344.924 221.392 344.636 221.732 344.284 221.988C343.932 222.244 343.504 222.372 343 222.372ZM341.524 217.968C341.524 218.376 341.544 218.792 341.584 219.216C341.632 219.632 341.712 220.012 341.824 220.356C341.936 220.7 342.088 220.98 342.28 221.196C342.472 221.412 342.716 221.52 343.012 221.52C343.308 221.52 343.552 221.408 343.744 221.184C343.936 220.952 344.088 220.66 344.2 220.308C344.312 219.964 344.388 219.584 344.428 219.168C344.476 218.744 344.5 218.344 344.5 217.968C344.5 217.528 344.472 217.1 344.416 216.684C344.36 216.268 344.272 215.896 344.152 215.568C344.032 215.24 343.876 214.976 343.684 214.776C343.492 214.576 343.26 214.476 342.988 214.476C342.692 214.476 342.448 214.58 342.256 214.788C342.064 214.988 341.916 215.252 341.812 215.58C341.7 215.908 341.624 216.28 341.584 216.696C341.544 217.112 341.524 217.536 341.524 217.968Z" fill="#0047FF"/>
</svg>
